if (_typeface_js && _typeface_js.loadFace) _typeface_js.loadFace({"glyphs":{"S":{"x_min":44.453125,"x_max":604.21875,"ha":750,"o":"m 604 166 q 588 105 604 131 q 547 56 579 88 q 498 12 515 23 q 437 -8 465 -8 l 208 -8 q 145 12 179 -8 q 65 98 108 36 q 44 134 55 111 l 93 148 q 95 144 94 145 l 97 141 q 140 86 112 115 q 187 47 168 58 q 212 41 198 41 l 431 41 q 455 47 445 41 q 504 88 475 58 q 547 143 533 118 q 552 168 552 154 l 552 255 q 538 306 552 281 q 498 337 523 330 l 119 444 q 65 487 86 454 q 45 563 45 520 l 45 648 q 59 709 45 686 q 102 761 70 727 q 150 804 133 794 q 211 825 183 825 l 419 825 q 480 804 447 825 q 562 718 520 779 q 584 682 576 698 l 534 666 q 531 670 531 669 l 530 673 l 530 675 q 489 728 516 700 q 441 769 462 757 q 415 775 430 775 l 218 775 q 194 769 205 775 q 145 728 175 758 q 101 673 115 698 q 94 648 94 655 l 94 569 q 109 520 94 544 q 148 490 125 497 l 526 381 q 582 339 561 372 q 604 265 604 306 l 604 166 "},"¦":{"x_min":0,"x_max":0,"ha":726},"/":{"x_min":36.109375,"x_max":506.984375,"ha":574,"o":"m 506 830 l 88 0 l 36 0 l 455 830 l 506 830 "},"y":{"x_min":-1.390625,"x_max":452.8125,"ha":556,"o":"m 452 598 l 197 -237 l 144 -237 l 222 0 l 186 0 l -1 598 l 50 598 l 218 50 l 237 50 l 405 598 l 452 598 "},"≈":{"x_min":0,"x_max":0,"ha":695},"Ž":{"x_min":0,"x_max":0,"ha":697},"Á":{"x_min":-6.9375,"x_max":637.546875,"ha":749,"o":"m 411 1086 l 266 927 l 218 943 l 347 1086 l 411 1086 m 637 0 l 580 0 l 518 198 l 112 198 l 48 0 l -6 0 l 262 830 l 368 829 l 637 0 m 502 250 l 333 773 l 295 773 l 127 250 l 502 250 "},"g":{"x_min":41.671875,"x_max":519.484375,"ha":667,"o":"m 519 597 l 511 508 l 511 -81 q 494 -150 511 -126 q 434 -215 470 -187 q 356 -240 402 -240 l 201 -240 q 125 -215 156 -240 q 66 -148 102 -198 q 61 -140 65 -145 q 56 -133 58 -136 l 100 -118 q 166 -186 126 -163 q 197 -194 180 -194 l 355 -194 q 387 -186 372 -194 q 459 -111 436 -156 q 463 -79 463 -101 l 463 98 q 387 26 433 63 q 326 1 352 1 l 195 1 q 118 25 148 1 q 58 91 84 51 q 41 158 41 115 l 41 445 q 58 513 41 490 q 118 579 81 551 q 195 604 150 604 l 326 604 q 387 577 350 604 q 461 511 438 536 l 472 597 l 519 597 m 465 154 l 465 451 l 458 461 q 406 512 441 484 q 350 552 372 540 q 322 558 338 558 l 197 558 q 165 550 180 558 q 93 475 116 520 q 87 443 87 463 l 87 162 q 93 130 87 141 q 125 88 102 111 q 165 54 147 65 q 197 47 177 47 l 322 47 q 350 52 338 47 q 406 93 372 65 q 458 144 441 120 l 465 154 "},"²":{"x_min":23.609375,"x_max":334.859375,"ha":413,"o":"m 334 701 q 319 651 336 669 q 266 620 302 633 l 101 565 q 62 502 62 544 l 62 469 l 331 469 l 331 429 l 23 429 l 23 508 q 94 604 23 580 l 248 655 q 279 673 276 672 q 295 712 295 687 l 295 720 l 295 726 q 293 737 295 729 l 291 741 q 281 759 288 751 q 267 772 273 768 q 248 783 261 776 q 231 793 236 790 q 202 800 222 800 l 140 800 q 115 795 122 800 q 77 768 105 790 q 63 757 73 763 q 48 745 54 750 l 23 772 q 84 822 70 812 q 143 840 111 840 l 205 840 q 266 818 240 840 q 318 769 306 784 q 333 723 331 751 l 334 701 "},"–":{"x_min":41.671875,"x_max":269.46875,"ha":429,"o":"m 269 322 l 41 322 l 41 365 l 269 365 l 269 322 "},"ë":{"x_min":41.671875,"x_max":504.203125,"ha":643,"o":"m 504 286 l 88 286 l 88 155 q 94 125 88 136 q 126 81 104 104 q 166 47 148 58 q 197 40 179 40 l 355 40 q 387 47 375 40 q 451 118 411 61 l 497 100 q 492 92 495 97 q 487 84 488 87 q 429 18 459 41 q 352 -6 397 -6 l 197 -6 q 119 18 151 -6 q 59 84 86 44 q 41 152 41 111 l 41 444 q 59 512 41 486 q 119 579 86 552 q 197 604 151 604 l 350 604 q 427 579 395 604 q 487 512 461 552 q 504 444 504 488 l 504 286 m 456 331 l 456 441 q 452 472 456 462 q 420 516 443 493 q 380 550 398 538 q 348 556 368 556 l 197 556 q 166 550 179 556 q 126 516 148 538 q 94 472 104 493 q 88 441 88 461 l 88 331 l 456 331 m 393 770 l 323 770 l 323 845 l 393 845 l 393 770 m 201 770 l 131 770 l 131 845 l 201 845 l 201 770 "},"ƒ":{"x_min":-63.890625,"x_max":344.46875,"ha":435,"o":"m 344 543 l 162 543 l 162 -83 q 145 -151 162 -127 q 86 -216 122 -188 q 9 -238 58 -238 l -63 -238 l -63 -193 l 8 -193 q 40 -187 31 -193 q 109 -111 81 -163 q 115 -80 115 -100 l 115 0 l 115 543 l 16 543 l 16 588 l 115 588 l 115 590 l 115 683 q 131 751 115 727 q 191 816 155 788 q 269 840 222 840 l 344 840 l 344 794 l 270 794 q 234 787 244 794 q 166 713 191 761 q 162 680 162 704 l 162 590 l 162 588 l 344 588 l 344 543 "},"Î":{"x_min":-94.109375,"x_max":255.921875,"ha":319,"o":"m 105 0 l 55 0 l 55 825 l 105 825 l 105 0 m 255 943 l 193 944 l 108 1054 l 54 1054 l -30 944 l -94 944 l 37 1109 l 123 1109 l 255 943 "},"e":{"x_min":41.671875,"x_max":504.203125,"ha":643,"o":"m 504 286 l 88 286 l 88 155 q 94 125 88 136 q 126 81 104 104 q 166 47 148 58 q 197 40 179 40 l 355 40 q 387 47 375 40 q 451 118 411 61 l 497 100 q 492 92 495 97 q 487 84 488 87 q 429 18 459 41 q 352 -6 397 -6 l 197 -6 q 119 18 151 -6 q 59 84 86 44 q 41 152 41 111 l 41 444 q 59 512 41 486 q 119 579 86 552 q 197 604 151 604 l 350 604 q 427 579 395 604 q 487 512 461 552 q 504 444 504 488 l 504 286 m 456 331 l 456 441 q 452 472 456 462 q 420 516 443 493 q 380 550 398 538 q 348 556 368 556 l 197 556 q 166 550 179 556 q 126 516 148 538 q 94 472 104 493 q 88 441 88 461 l 88 331 l 456 331 "},"Ã":{"x_min":-6.9375,"x_max":627.828125,"ha":739,"o":"m 627 0 l 575 0 l 512 197 l 108 197 l 44 0 l -6 0 l 259 827 l 361 827 l 627 0 m 497 247 l 330 775 l 288 775 l 123 247 l 497 247 m 479 947 l 434 933 q 358 976 411 986 l 257 943 q 179 953 216 929 q 126 1025 143 976 l 170 1039 q 247 996 194 986 l 348 1029 q 425 1019 388 1043 q 479 947 462 996 "},"J":{"x_min":0,"x_max":438.921875,"ha":594,"o":"m 438 169 q 422 108 438 133 q 380 57 411 90 q 334 15 350 25 q 272 -5 301 -5 l 165 -5 q 102 15 136 -5 q 22 101 70 36 q 0 137 8 120 l 48 151 q 51 147 50 148 l 52 144 q 95 89 68 118 q 141 50 122 61 q 169 44 152 44 l 265 44 q 288 50 279 44 q 337 90 308 61 q 380 145 366 120 q 387 170 387 163 l 387 830 l 438 830 l 438 169 "},"»":{"x_min":69.453125,"x_max":536.15625,"ha":731,"o":"m 536 347 l 359 144 l 308 161 l 463 336 l 463 380 l 306 554 l 359 572 l 536 368 l 536 347 m 298 347 l 122 144 l 70 161 l 226 336 l 226 380 l 69 554 l 122 572 l 298 368 l 298 347 "},"©":{"x_min":43.0625,"x_max":716.71875,"ha":863,"o":"m 716 175 q 700 113 716 138 q 658 64 688 97 q 611 20 627 31 q 547 0 577 0 l 208 0 q 145 20 179 0 q 98 64 129 31 q 56 113 68 97 q 43 175 43 137 l 43 657 q 56 718 43 694 q 98 770 68 736 q 145 813 129 804 q 208 834 179 834 l 547 834 q 611 813 577 834 q 658 770 627 804 q 700 718 688 736 q 716 657 716 693 l 716 175 m 668 654 q 661 682 668 670 q 616 738 647 707 q 565 780 584 769 q 540 786 555 786 l 215 786 q 190 780 200 786 q 139 738 170 769 q 95 682 108 707 q 90 654 90 670 l 90 177 q 95 152 90 163 q 139 95 108 127 q 190 52 170 63 q 215 47 200 47 l 540 47 q 565 52 555 47 q 616 95 584 63 q 661 152 648 127 q 666 177 666 163 l 668 654 m 559 273 q 504 219 529 237 q 445 191 465 191 l 354 191 q 280 216 312 191 q 223 279 245 243 q 204 345 204 309 l 204 502 q 223 569 204 538 q 280 633 247 608 q 354 655 308 655 l 445 655 q 504 629 469 655 q 558 577 525 613 l 516 566 q 466 605 486 594 q 443 609 461 609 l 355 609 q 325 604 333 609 q 255 529 281 579 q 250 500 250 518 l 250 348 q 255 318 250 329 q 325 243 281 268 q 355 237 333 237 l 443 237 q 466 241 461 237 q 516 283 479 248 l 559 273 "},"˘":{"x_min":41.671875,"x_max":352.8125,"ha":519,"o":"m 352 973 q 345 940 351 969 q 330 900 338 911 q 273 840 309 868 q 216 822 250 822 l 179 822 q 122 840 145 822 q 62 901 83 870 q 53 920 56 909 q 47 948 50 932 q 41 973 44 965 l 73 973 q 76 959 75 970 q 80 943 77 947 q 148 865 106 890 q 176 858 159 858 l 219 858 q 247 865 236 858 q 315 943 288 890 q 320 973 316 947 l 352 973 "},"≥":{"x_min":34.71875,"x_max":486.15625,"ha":622,"o":"m 486 362 l 36 93 l 36 150 l 398 366 l 398 402 l 34 619 l 34 676 l 486 408 l 486 362 "},"ò":{"x_min":34.71875,"x_max":495.875,"ha":635,"o":"m 495 152 q 479 84 495 108 q 419 18 452 44 q 341 -6 387 -6 l 188 -6 q 111 18 143 -6 q 51 84 77 44 q 34 152 34 108 l 34 444 q 51 512 34 488 q 111 579 77 552 q 188 604 143 604 l 341 604 q 419 579 387 604 q 479 512 452 552 q 495 444 495 488 l 495 152 m 448 155 l 448 441 q 444 472 448 462 q 412 516 434 493 q 372 550 390 538 q 340 556 359 556 l 190 556 q 158 550 170 556 q 118 516 140 538 q 86 472 95 493 q 80 441 80 461 l 80 155 q 86 125 80 136 q 118 81 95 104 q 158 47 140 58 q 190 40 170 40 l 340 40 q 372 47 359 40 q 412 81 390 58 q 444 125 434 104 q 448 155 448 134 m 333 741 l 283 723 l 136 909 l 201 909 l 333 741 "},"^":{"x_min":108.34375,"x_max":456.984375,"ha":582,"o":"m 456 744 l 395 744 l 311 854 l 256 854 l 172 744 l 108 744 l 240 909 l 326 909 l 456 744 "},"«":{"x_min":69.453125,"x_max":536.15625,"ha":731,"o":"m 536 554 l 379 380 l 379 336 l 534 161 l 483 144 l 306 347 l 306 368 l 483 572 l 536 554 m 298 554 l 141 380 l 141 336 l 297 161 l 245 144 l 69 347 l 69 368 l 245 572 l 298 554 "},"D":{"x_min":55.5625,"x_max":581.984375,"ha":745,"o":"m 581 173 q 566 113 581 140 q 525 63 555 95 q 477 20 494 30 q 416 0 444 0 l 55 0 l 55 827 l 416 827 q 477 808 448 827 q 525 764 494 798 q 566 712 555 730 q 581 652 581 686 l 581 173 m 533 176 l 533 650 q 527 677 533 668 q 484 732 513 702 q 434 773 454 762 q 409 779 423 779 l 102 779 l 102 50 l 409 50 q 434 55 423 50 q 484 96 454 66 q 527 151 513 126 q 533 176 533 162 "},"ł":{"x_min":0,"x_max":0,"ha":374},"ÿ":{"x_min":0,"x_max":0,"ha":582},"Ł":{"x_min":0,"x_max":0,"ha":640},"í":{"x_min":41.453125,"x_max":238.703125,"ha":286,"o":"m 94 0 l 47 0 l 47 597 l 94 597 l 94 0 m 238 909 l 91 723 l 41 741 l 173 909 l 238 909 "},"ˆ":{"x_min":88.890625,"x_max":438.921875,"ha":589,"o":"m 438 743 l 376 744 l 291 854 l 237 854 l 152 744 l 88 744 l 220 909 l 306 909 l 438 743 "},"w":{"x_min":-2.78125,"x_max":813.953125,"ha":908,"o":"m 813 597 l 647 0 l 563 0 l 408 561 l 402 561 l 245 0 l 163 0 l -2 597 l 48 597 l 190 51 l 220 51 l 363 597 l 448 597 l 590 51 l 620 51 l 763 597 l 813 597 "},"$":{"x_min":5.5625,"x_max":568.09375,"ha":742,"o":"m 568 169 q 555 108 568 129 q 512 58 544 91 q 463 15 480 25 q 401 -5 430 -5 l 308 -5 l 308 -129 l 262 -129 l 262 -5 l 172 -5 q 108 15 141 -5 q 27 100 75 36 q 5 138 18 112 l 56 152 q 62 144 62 144 q 106 90 79 118 q 151 52 133 62 q 176 47 161 47 l 262 47 l 262 393 l 83 443 q 29 486 50 452 q 8 562 8 519 l 8 645 q 22 707 8 683 q 64 758 33 725 q 111 801 95 791 q 175 822 144 822 l 262 822 l 262 940 l 308 940 l 308 822 l 381 822 q 444 801 411 822 q 527 716 488 773 q 550 677 537 704 l 498 662 l 493 670 q 451 725 479 697 q 404 763 423 752 q 377 769 393 769 l 308 769 l 308 436 l 491 383 q 546 340 525 373 q 568 265 568 306 l 568 169 m 262 447 l 262 769 l 181 769 q 158 763 168 769 q 109 724 137 752 q 68 670 80 695 q 61 645 61 657 l 61 568 q 75 519 61 541 q 112 490 88 497 l 262 447 m 515 170 l 515 256 q 500 306 515 283 q 461 337 484 330 l 308 380 l 308 47 l 394 47 q 419 52 409 47 q 468 92 440 63 q 509 145 497 120 q 515 170 515 156 "},"∫":{"x_min":0,"x_max":0,"ha":695},"\\":{"x_min":27.78125,"x_max":498.65625,"ha":574,"o":"m 498 0 l 445 0 l 27 830 l 79 830 l 498 0 "},"Ì":{"x_min":-39.875,"x_max":157.359375,"ha":319,"o":"m 105 0 l 55 0 l 55 825 l 105 825 l 105 0 m 157 941 l 107 923 l -39 1109 l 25 1109 l 157 941 "},"Ç":{"x_min":56.953125,"x_max":584.765625,"ha":720,"o":"m 584 134 q 562 98 576 118 q 480 12 520 37 q 419 -8 447 -8 l 223 -8 q 161 12 194 -8 q 113 54 144 22 q 72 105 83 87 q 56 165 56 127 l 56 651 q 72 711 56 688 q 114 762 83 729 q 161 805 145 795 q 222 826 194 826 l 419 826 q 480 805 447 826 q 562 719 520 780 q 584 683 576 700 l 534 668 q 531 672 531 670 l 530 675 l 530 676 q 489 730 516 702 q 441 770 462 758 q 415 776 430 776 l 229 776 q 205 770 216 776 q 156 729 186 759 q 112 675 126 700 q 106 612 106 665 l 106 168 q 112 143 106 154 q 156 88 126 118 q 205 47 186 58 q 229 41 216 41 l 415 41 q 440 47 429 41 q 486 86 459 58 q 529 141 513 115 q 531 143 530 141 q 533 148 531 145 l 584 134 m 358 -87 l 298 -244 l 244 -244 l 311 -68 l 358 -87 "},"’":{"x_min":88.890625,"x_max":141.671875,"ha":308,"o":"m 141 712 l 134 641 l 88 641 l 97 730 l 97 909 l 141 909 l 141 712 "},"-":{"x_min":41.671875,"x_max":465.3125,"ha":625,"o":"m 465 320 l 41 320 l 41 365 l 465 365 l 465 320 "},"Q":{"x_min":55.5625,"x_max":620.890625,"ha":774,"o":"m 620 169 q 605 108 620 130 q 563 56 594 90 q 516 13 531 23 q 455 -5 484 -5 l 423 -5 l 475 -133 l 426 -133 l 376 -5 l 222 -5 q 159 13 191 -5 q 113 56 144 23 q 70 108 81 90 q 55 169 55 130 l 55 650 q 70 709 55 686 q 113 761 81 727 q 159 804 144 794 q 222 823 188 823 l 455 823 q 516 804 487 823 q 563 761 531 794 q 605 709 594 727 q 620 650 620 686 l 620 169 m 570 170 l 570 648 q 565 675 570 663 q 521 729 551 700 q 472 769 491 758 q 448 773 465 773 l 227 773 q 204 769 211 773 q 154 729 184 758 q 111 675 125 700 q 105 648 105 663 l 105 170 q 112 144 105 161 q 155 90 126 119 q 204 51 184 62 q 229 43 220 43 l 354 43 l 337 90 l 380 105 l 404 43 l 448 43 q 473 51 456 43 q 522 90 493 62 q 565 144 551 119 q 570 170 570 155 "},"M":{"x_min":55.5625,"x_max":716.71875,"ha":886,"o":"m 716 0 l 669 0 l 669 779 l 650 779 l 401 230 l 369 230 l 122 776 l 102 776 l 102 0 l 55 0 l 55 825 l 150 825 l 384 301 l 620 825 l 716 825 l 716 0 "},"C":{"x_min":55.5625,"x_max":583.375,"ha":718,"o":"m 583 134 q 561 98 575 118 q 479 12 519 37 q 418 -8 445 -8 l 222 -8 q 159 12 193 -8 q 112 54 143 22 q 70 105 81 87 q 55 165 55 127 l 55 651 q 70 711 55 688 q 113 762 81 729 q 159 805 144 795 q 220 826 193 826 l 418 826 q 479 805 445 826 q 561 719 519 780 q 583 683 575 700 l 533 668 q 530 672 530 670 l 529 675 l 529 676 q 488 730 515 702 q 440 770 461 758 q 413 776 429 776 l 227 776 q 204 770 215 776 q 154 729 184 759 q 111 675 125 700 q 105 612 105 665 l 105 168 q 111 143 105 154 q 154 88 125 118 q 204 47 184 58 q 227 41 215 41 l 413 41 q 438 47 427 41 q 485 86 458 58 q 527 141 512 115 l 529 144 q 531 148 530 145 l 583 134 "},"œ":{"x_min":27.78125,"x_max":902.84375,"ha":1042,"o":"m 902 293 l 488 293 l 488 159 l 488 150 q 493 131 488 138 q 525 88 502 111 q 565 54 547 65 q 597 47 577 47 l 754 47 q 786 54 773 47 q 840 112 801 62 q 850 123 843 116 l 895 106 q 886 91 891 100 q 827 25 858 48 q 751 0 795 0 l 595 0 q 518 25 550 0 q 465 81 490 48 q 412 25 440 48 q 334 0 380 0 l 181 0 q 104 25 136 0 q 44 91 70 51 q 27 159 27 115 l 27 451 q 44 519 27 495 q 104 586 70 559 q 181 609 134 609 l 334 609 q 412 586 381 609 q 465 529 440 562 q 518 586 490 562 q 595 611 550 611 l 748 611 q 826 586 794 611 q 886 519 859 559 q 902 451 902 495 l 902 293 m 855 338 l 855 448 q 851 479 855 469 q 819 522 841 500 q 779 556 797 545 q 747 562 770 562 l 597 562 q 565 556 573 562 q 525 522 547 545 q 493 479 502 500 q 488 461 488 472 l 488 451 l 488 338 l 855 338 m 441 162 l 441 448 q 437 479 441 469 q 405 522 427 500 q 365 556 383 545 q 333 562 356 562 l 183 562 q 151 556 159 562 q 111 522 133 545 q 79 479 88 500 q 75 448 75 469 l 75 162 q 79 131 75 141 q 111 88 88 111 q 151 54 133 65 q 183 47 163 47 l 333 47 q 365 54 352 47 q 405 88 383 65 q 437 131 427 111 q 441 162 441 141 "},"!":{"x_min":98.625,"x_max":180.5625,"ha":276,"o":"m 161 255 l 116 255 l 116 843 l 161 843 l 161 255 m 180 0 l 98 0 l 98 87 l 180 87 l 180 0 "},"ç":{"x_min":41.671875,"x_max":495.875,"ha":628,"o":"m 495 100 q 491 92 494 97 q 486 84 487 87 q 427 18 458 41 q 351 -6 395 -6 l 195 -6 q 118 18 150 -6 q 58 84 84 44 q 41 152 41 108 l 41 444 q 58 512 41 488 q 118 579 84 552 q 195 604 150 604 l 347 604 q 423 579 391 604 q 481 511 452 555 q 486 503 483 508 q 491 495 490 498 l 448 480 q 381 550 420 527 q 350 556 369 556 l 197 556 q 165 550 177 556 q 125 516 147 538 q 93 472 102 493 q 87 441 87 461 l 87 155 q 93 125 87 136 q 125 81 102 104 q 165 47 147 58 q 197 40 177 40 l 354 40 q 386 47 373 40 q 451 116 422 68 l 495 100 m 311 -87 l 251 -244 l 197 -244 l 263 -68 l 311 -87 "},"È":{"x_min":55.5625,"x_max":511.15625,"ha":682,"o":"m 511 0 l 55 0 l 55 825 l 511 825 l 511 775 l 104 775 l 104 436 l 511 436 l 511 387 l 104 387 l 104 50 l 511 50 l 511 0 m 373 941 l 323 923 l 176 1109 l 241 1109 l 373 941 "},"ﬁ":{"x_min":0,"x_max":0,"ha":668},"{":{"x_min":41.671875,"x_max":258.359375,"ha":454,"o":"m 258 -18 l 219 -56 l 109 54 q 56 116 72 91 q 41 177 41 138 l 41 654 q 56 713 41 690 q 109 779 76 744 l 219 890 l 258 851 l 152 745 q 102 679 122 715 q 94 651 94 665 l 94 180 q 102 154 94 168 q 152 86 123 115 l 258 -18 "},"X":{"x_min":54.171875,"x_max":547.265625,"ha":675,"o":"m 547 826 l 326 412 l 545 0 l 494 0 l 301 365 l 105 0 l 55 0 l 273 412 l 54 826 l 105 826 l 301 459 l 494 826 l 547 826 "},"ô":{"x_min":34.71875,"x_max":495.875,"ha":635,"o":"m 495 152 q 479 84 495 108 q 419 18 452 44 q 341 -6 387 -6 l 188 -6 q 111 18 143 -6 q 51 84 77 44 q 34 152 34 108 l 34 444 q 51 512 34 488 q 111 579 77 552 q 188 604 143 604 l 341 604 q 419 579 387 604 q 479 512 452 552 q 495 444 495 488 l 495 152 m 448 155 l 448 441 q 444 472 448 462 q 412 516 434 493 q 372 550 390 538 q 340 556 359 556 l 190 556 q 158 550 170 556 q 118 516 140 538 q 86 472 95 493 q 80 441 80 461 l 80 155 q 86 125 80 136 q 118 81 95 104 q 158 47 140 58 q 190 40 170 40 l 340 40 q 372 47 359 40 q 412 81 390 58 q 444 125 434 104 q 448 155 448 134 m 438 743 l 376 744 l 291 854 l 237 854 l 152 744 l 88 744 l 220 909 l 306 909 l 438 743 "},"¼":{"x_min":77.78125,"x_max":738.953125,"ha":908,"o":"m 652 838 l 229 0 l 176 0 l 600 838 l 652 838 m 268 444 l 77 444 l 77 473 l 159 473 l 159 808 l 77 808 l 77 840 l 188 840 l 188 473 l 268 473 l 268 444 m 738 104 l 670 104 l 670 1 l 641 1 l 641 104 l 436 104 l 436 145 l 634 397 l 670 397 l 670 136 l 738 136 l 738 104 m 641 136 l 641 359 l 466 136 l 641 136 "},"#":{"x_min":23.609375,"x_max":568.09375,"ha":721,"o":"m 568 554 l 561 506 l 437 506 l 404 312 l 527 312 l 520 265 l 397 265 l 370 109 l 326 109 l 352 265 l 191 265 l 165 109 l 120 109 l 147 265 l 23 265 l 30 312 l 154 312 l 187 506 l 63 506 l 70 554 l 194 554 l 219 704 l 263 704 l 238 554 l 400 554 l 425 704 l 469 704 l 444 554 l 568 554 m 393 506 l 231 506 l 198 312 l 359 312 l 393 506 "},"Ê":{"x_min":55.5625,"x_max":511.15625,"ha":682,"o":"m 511 0 l 55 0 l 55 825 l 511 825 l 511 775 l 104 775 l 104 436 l 511 436 l 511 387 l 104 387 l 104 50 l 511 50 l 511 0 m 462 943 l 400 944 l 315 1054 l 261 1054 l 176 944 l 112 944 l 244 1109 l 330 1109 l 462 943 "},")":{"x_min":97.234375,"x_max":326.421875,"ha":471,"o":"m 326 658 l 325 175 q 309 113 325 140 q 268 64 300 97 q 219 20 236 31 q 158 0 186 0 l 97 0 l 97 50 l 151 50 q 176 55 165 50 q 225 96 195 66 q 268 151 254 126 q 275 176 275 168 l 275 655 q 268 683 275 672 q 225 738 254 708 q 176 779 195 768 q 151 784 165 784 l 97 784 l 97 834 l 158 834 q 220 813 187 834 q 267 770 236 804 q 309 719 298 737 q 326 658 326 694 "},"Å":{"x_min":-6.9375,"x_max":627.828125,"ha":739,"o":"m 468 1063 q 445 994 468 1023 q 390 940 413 952 q 331 922 366 922 l 294 922 q 236 940 263 922 q 177 995 208 958 q 156 1063 156 1023 l 156 1091 q 179 1159 156 1130 q 236 1215 205 1194 q 294 1233 262 1233 l 331 1233 q 390 1215 363 1233 q 418 1191 400 1209 q 445 1161 437 1173 q 468 1091 468 1130 l 468 1063 m 436 1063 l 436 1090 q 430 1120 436 1111 q 362 1193 404 1169 q 333 1197 355 1197 l 291 1197 q 263 1193 269 1197 q 226 1161 247 1183 q 195 1120 205 1138 q 188 1090 188 1100 l 188 1063 q 195 1034 188 1045 q 225 994 205 1016 q 263 962 245 972 q 291 957 272 957 l 334 957 q 362 962 355 957 q 430 1034 402 984 q 436 1063 436 1043 m 627 0 l 575 0 l 512 197 l 108 197 l 44 0 l -6 0 l 259 827 l 361 827 l 627 0 m 497 247 l 330 775 l 288 775 l 123 247 l 497 247 "},"Δ":{"x_min":0,"x_max":0,"ha":861},"ø":{"x_min":34.71875,"x_max":495.875,"ha":635,"o":"m 495 154 q 479 84 495 108 q 419 19 455 47 q 341 -5 387 -5 l 188 -5 q 137 2 175 -5 l 118 -40 l 63 -40 l 98 29 q 51 84 68 62 q 34 154 34 111 l 34 443 q 51 512 34 488 q 111 577 75 550 q 188 602 143 602 l 341 602 q 384 597 362 602 l 401 630 l 454 630 l 426 573 q 479 512 472 525 q 495 443 495 488 l 495 154 m 448 156 l 448 440 q 444 472 448 465 q 401 526 434 490 l 158 40 l 190 40 l 340 40 q 372 48 358 40 q 412 82 390 59 q 444 125 434 105 q 448 156 448 134 m 365 556 l 340 556 l 190 556 q 158 548 172 556 q 118 514 140 537 q 86 472 95 491 q 80 440 80 461 l 80 156 q 86 125 80 137 q 97 109 86 123 l 122 76 l 365 556 "},"â":{"x_min":20.828125,"x_max":498.65625,"ha":639,"o":"m 498 -1 l 451 -1 l 440 79 q 410 48 423 61 q 384 27 397 36 q 369 18 372 19 q 309 -8 336 -8 l 173 -8 q 97 16 129 -8 q 38 81 63 41 q 20 150 20 108 l 20 179 q 38 248 20 222 q 97 312 62 286 q 173 337 129 337 l 443 337 l 443 441 q 438 470 443 461 q 406 514 429 491 q 366 548 384 537 q 334 555 354 555 l 190 555 q 159 548 172 555 q 104 490 141 538 q 95 479 98 481 l 50 495 q 54 503 51 498 q 59 511 58 508 q 116 579 93 562 q 194 602 147 602 l 336 602 q 413 577 381 602 q 473 512 450 550 q 490 443 490 488 l 490 87 l 498 -1 m 444 141 l 444 291 l 175 291 q 143 283 158 291 q 73 208 97 255 q 68 177 68 197 l 68 151 q 73 122 68 133 q 143 45 98 73 q 175 38 155 38 l 305 38 q 331 44 320 38 q 444 141 416 88 m 438 743 l 376 744 l 291 854 l 237 854 l 152 744 l 88 744 l 220 909 l 306 909 l 438 743 "},"}":{"x_min":101.390625,"x_max":319.46875,"ha":456,"o":"m 319 177 q 302 116 319 141 q 250 54 288 91 l 138 -56 l 101 -18 l 206 86 q 258 154 238 118 q 265 180 265 165 l 265 651 q 258 679 265 668 q 206 745 240 712 l 101 851 l 138 890 l 250 779 q 302 713 284 744 q 319 654 319 688 l 319 177 "},"‰":{"x_min":56.953125,"x_max":1159.8125,"ha":1268,"o":"m 1159 141 q 1143 84 1159 109 q 1084 20 1119 48 q 1020 0 1057 0 l 991 0 q 925 20 952 0 q 868 84 893 47 q 851 141 851 109 l 851 247 q 868 305 851 280 q 925 368 891 340 q 991 390 954 390 l 1020 390 q 1084 368 1055 390 q 1143 305 1120 337 q 1159 247 1159 280 l 1159 141 m 1125 138 l 1125 248 q 1119 276 1125 265 q 1088 316 1111 294 q 1047 348 1065 337 q 1019 355 1036 355 l 993 355 q 963 348 975 355 q 922 316 945 337 q 891 276 900 294 q 887 248 887 266 l 887 138 q 891 111 887 120 q 963 40 911 72 q 993 34 972 34 l 1019 34 q 1047 41 1036 34 q 1088 73 1065 52 q 1119 111 1111 94 q 1125 138 1125 122 m 363 581 q 348 523 363 547 q 290 462 329 494 q 223 441 265 441 l 195 441 q 130 462 155 441 q 72 523 91 494 q 56 581 56 547 l 56 688 q 72 745 56 722 q 130 811 98 784 q 195 832 158 832 l 223 832 q 290 811 262 832 q 348 745 322 784 q 363 688 363 722 l 363 581 m 329 580 l 329 691 q 325 719 329 709 q 252 790 305 758 q 223 795 244 795 l 197 795 q 168 790 176 795 q 95 719 115 758 q 90 691 90 708 l 90 580 q 95 554 90 565 q 127 514 104 536 q 168 481 150 493 q 197 476 176 476 l 223 476 q 252 481 244 476 q 293 514 270 493 q 325 554 316 536 q 329 580 329 562 m 645 830 l 226 0 l 176 0 l 597 830 l 645 830 m 770 141 q 755 84 770 108 q 697 20 732 48 q 632 0 669 0 l 604 0 q 537 20 565 0 q 480 84 505 47 q 463 141 463 109 l 463 247 q 480 305 463 280 q 537 368 504 340 q 604 390 566 390 l 632 390 q 697 368 668 390 q 755 305 733 337 q 770 247 770 281 l 770 141 m 737 138 l 737 248 q 732 276 737 265 q 700 316 723 294 q 659 348 677 337 q 630 355 648 355 l 605 355 q 576 348 587 355 q 534 315 558 337 q 502 276 511 293 q 498 248 498 266 l 498 138 q 502 111 498 120 q 576 40 522 73 q 605 34 584 34 l 630 34 q 659 41 648 34 q 700 73 677 52 q 732 111 723 94 q 737 138 737 122 "},"Ä":{"x_min":-6.9375,"x_max":627.828125,"ha":739,"o":"m 627 0 l 575 0 l 512 197 l 108 197 l 44 0 l -6 0 l 259 827 l 361 827 l 627 0 m 497 247 l 330 775 l 288 775 l 123 247 l 497 247 m 444 955 l 374 955 l 374 1030 l 444 1030 l 444 955 m 252 955 l 182 955 l 182 1030 l 252 1030 l 252 955 "},"¸":{"x_min":161.125,"x_max":275.015625,"ha":564,"o":"m 275 -87 l 215 -244 l 161 -244 l 227 -68 l 275 -87 "},"a":{"x_min":20.828125,"x_max":498.65625,"ha":646,"o":"m 498 -1 l 451 -1 l 440 79 q 410 48 423 61 q 384 27 397 36 q 369 18 372 19 q 309 -8 336 -8 l 173 -8 q 97 16 129 -8 q 38 81 63 41 q 20 150 20 108 l 20 179 q 38 248 20 222 q 97 312 62 286 q 173 337 129 337 l 443 337 l 443 441 q 438 470 443 461 q 406 514 429 491 q 366 548 384 537 q 334 555 354 555 l 190 555 q 159 548 172 555 q 104 490 141 538 q 95 479 98 481 l 50 495 q 54 503 51 498 q 59 511 58 508 q 116 579 93 562 q 194 602 147 602 l 336 602 q 413 577 381 602 q 473 512 450 550 q 490 443 490 488 l 490 87 l 498 -1 m 444 141 l 444 291 l 175 291 q 143 283 158 291 q 73 208 97 255 q 68 177 68 197 l 68 151 q 73 122 68 133 q 143 45 98 73 q 175 38 155 38 l 305 38 q 331 44 320 38 q 444 141 416 88 "},"—":{"x_min":41.671875,"x_max":593.109375,"ha":753,"o":"m 593 322 l 41 322 l 41 365 l 593 365 l 593 322 "},"=":{"x_min":44.453125,"x_max":494.484375,"ha":654,"o":"m 494 408 l 44 408 l 44 461 l 494 461 l 494 408 m 494 230 l 44 230 l 44 280 l 494 280 l 494 230 "},"N":{"x_min":55.5625,"x_max":580.609375,"ha":750,"o":"m 580 0 l 487 0 l 118 779 l 102 779 l 102 0 l 55 0 l 55 823 l 148 823 l 519 44 l 533 44 l 533 823 l 580 823 l 580 0 "},"˚":{"x_min":41.671875,"x_max":352.8125,"ha":519,"o":"m 352 832 q 330 758 352 788 q 273 698 309 726 q 216 680 250 680 l 179 680 q 122 698 145 680 q 62 759 83 729 q 41 832 41 788 l 41 861 q 63 933 41 900 q 122 994 86 966 q 179 1012 145 1012 l 216 1012 q 273 994 250 1012 q 330 934 309 966 q 352 861 352 904 l 352 832 m 320 832 l 320 859 q 315 891 320 879 q 247 969 288 944 q 218 975 238 975 l 176 975 q 148 969 156 975 q 80 891 106 944 q 73 859 73 877 l 73 832 q 80 801 73 815 q 148 723 106 748 q 176 716 159 716 l 219 716 q 247 723 236 716 q 315 801 288 748 q 320 832 320 813 "},"ú":{"x_min":41.671875,"x_max":502.8125,"ha":649,"o":"m 502 -1 l 455 -1 l 444 75 q 416 45 427 56 q 390 25 404 34 q 375 16 376 16 q 313 -6 341 -6 l 195 -6 q 118 18 150 -6 q 58 84 84 44 q 41 152 41 108 l 41 597 l 88 597 l 88 155 q 93 125 88 134 q 125 81 102 104 q 165 47 147 58 q 197 40 177 40 l 309 40 q 336 45 325 40 q 395 86 361 59 q 447 141 430 113 l 447 597 l 494 597 l 494 88 l 502 -1 m 366 909 l 219 723 l 169 741 l 301 909 l 366 909 "},"⁄":{"x_min":0,"x_max":0,"ha":900},"2":{"x_min":47.21875,"x_max":538.9375,"ha":685,"o":"m 538 569 q 461 448 538 490 l 161 290 q 108 209 108 261 l 108 50 l 527 50 l 527 0 l 58 0 l 58 216 q 137 334 58 293 l 438 493 q 487 572 487 519 l 488 665 q 483 695 488 683 q 412 772 458 744 q 380 779 400 779 l 216 779 q 190 773 198 779 q 142 733 169 761 q 101 679 115 705 l 100 676 q 97 670 98 673 l 47 686 q 69 722 55 702 q 150 808 112 784 q 212 829 183 829 l 381 829 q 455 805 425 829 q 491 770 468 797 q 520 733 513 744 q 538 668 538 705 l 538 569 "},"ü":{"x_min":41.671875,"x_max":502.8125,"ha":649,"o":"m 502 -1 l 455 -1 l 444 75 q 416 45 427 56 q 390 25 404 34 q 375 16 376 16 q 313 -6 341 -6 l 195 -6 q 118 18 150 -6 q 58 84 84 44 q 41 152 41 108 l 41 597 l 88 597 l 88 155 q 93 125 88 134 q 125 81 102 104 q 165 47 147 58 q 197 40 177 40 l 309 40 q 336 45 325 40 q 395 86 361 59 q 447 141 430 113 l 447 597 l 494 597 l 494 88 l 502 -1 m 411 770 l 341 770 l 341 845 l 411 845 l 411 770 m 219 770 l 149 770 l 149 845 l 219 845 l 219 770 "},"¯":{"x_min":47.21875,"x_max":265.296875,"ha":265,"o":"m 265 770 l 47 770 l 47 840 l 265 840 l 265 770 "},"Z":{"x_min":55.5625,"x_max":538.9375,"ha":668,"o":"m 538 0 l 55 0 l 55 51 l 486 775 l 55 775 l 55 825 l 538 825 l 538 770 l 109 50 l 538 50 l 538 0 "},"u":{"x_min":41.671875,"x_max":502.8125,"ha":649,"o":"m 502 -1 l 455 -1 l 444 75 q 416 45 427 56 q 390 25 404 34 q 375 16 376 16 q 313 -6 341 -6 l 195 -6 q 118 18 150 -6 q 58 84 84 44 q 41 152 41 108 l 41 597 l 88 597 l 88 155 q 93 125 88 134 q 125 81 102 104 q 165 47 147 58 q 197 40 177 40 l 309 40 q 336 45 325 40 q 395 86 361 59 q 447 141 430 113 l 447 597 l 494 597 l 494 88 l 502 -1 "},"˜":{"x_min":69.453125,"x_max":422.25,"ha":642,"o":"m 422 794 l 377 780 q 301 823 354 833 l 200 790 q 122 800 159 776 q 69 872 86 823 l 113 886 q 190 843 137 833 l 291 876 q 368 866 331 890 q 422 794 405 843 "},"Ó":{"x_min":56.953125,"x_max":622.265625,"ha":775,"o":"m 622 168 q 607 106 622 130 q 565 56 595 88 q 518 13 534 23 q 455 -6 484 -6 l 222 -6 q 161 13 194 -6 q 112 57 144 25 q 70 106 80 90 q 56 168 56 130 l 56 651 q 70 712 56 688 q 113 763 81 730 q 161 807 144 797 q 222 827 194 827 l 455 827 q 518 807 484 827 q 564 763 533 797 q 607 712 595 730 q 622 651 622 686 l 622 168 m 572 169 l 572 648 q 566 676 572 666 q 523 731 552 701 q 475 772 494 761 q 450 777 463 777 l 229 777 q 205 772 216 777 q 156 731 186 761 q 112 676 126 701 q 105 648 105 665 l 105 169 q 112 144 105 161 q 156 89 126 119 q 205 48 186 59 q 229 43 216 43 l 450 43 q 475 48 463 43 q 523 89 494 59 q 566 144 552 119 q 572 169 572 155 m 426 1110 l 279 924 l 229 942 l 361 1110 l 426 1110 "},"k":{"x_min":43.0625,"x_max":468.09375,"ha":558,"o":"m 468 0 l 395 0 l 137 286 l 90 286 l 90 0 l 43 0 l 43 837 l 90 837 l 90 330 l 136 330 l 373 586 l 438 586 l 181 308 l 468 0 "},"ˇ":{"x_min":88.890625,"x_max":438.921875,"ha":589,"o":"m 438 900 l 306 734 l 220 734 l 88 901 l 151 900 l 236 790 l 290 790 l 375 900 l 438 900 "},"Ù":{"x_min":44.453125,"x_max":575.046875,"ha":742,"o":"m 575 168 q 559 108 575 134 q 518 57 548 90 q 470 15 487 25 q 409 -5 437 -5 l 211 -5 q 148 15 181 -5 q 101 57 131 25 q 59 108 70 90 q 44 168 44 130 l 44 825 l 94 825 l 94 170 q 101 145 94 163 q 145 90 115 120 q 194 50 175 61 q 218 44 205 44 l 402 44 q 427 50 416 44 q 476 90 447 61 q 518 145 505 120 q 525 170 525 163 l 525 825 l 575 825 l 575 168 m 401 942 l 351 924 l 204 1110 l 269 1110 l 401 942 "},"Ÿ":{"x_min":0,"x_max":0,"ha":626},"¢":{"x_min":41.671875,"x_max":495.875,"ha":620,"o":"m 495 102 q 486 87 487 90 q 427 22 461 47 q 351 -2 395 -2 l 290 -2 l 290 -133 l 243 -133 l 243 -2 l 195 -2 q 118 22 150 -2 q 58 87 81 50 q 41 155 41 111 l 41 441 q 58 509 41 486 q 118 575 81 547 q 195 600 150 600 l 243 600 l 243 748 l 290 748 l 290 600 l 347 600 q 423 575 391 600 q 481 508 445 558 q 486 500 483 505 q 491 493 490 495 l 448 477 q 381 545 422 523 q 350 554 366 554 l 290 554 l 290 43 l 354 43 q 386 50 373 43 q 451 118 423 70 l 495 102 m 243 43 l 243 554 l 197 554 q 165 545 180 554 q 125 511 147 534 q 93 469 102 488 q 87 438 87 458 l 87 158 q 93 126 87 137 q 125 84 102 106 q 165 50 147 61 q 197 43 177 43 l 243 43 "},"ß":{"x_min":40.28125,"x_max":568.09375,"ha":700,"o":"m 568 150 q 550 80 568 106 q 495 20 527 45 q 419 -4 463 -4 l 252 -4 q 176 20 208 -4 l 218 50 q 250 43 230 43 l 418 43 q 448 50 436 43 q 515 120 493 76 q 520 152 520 131 l 520 220 q 501 267 520 248 q 455 288 481 286 l 390 293 l 366 294 q 289 330 320 297 q 258 411 258 363 l 258 426 q 276 495 258 469 q 340 561 286 512 q 391 611 369 586 l 395 626 l 395 684 q 391 711 395 702 q 359 752 381 730 q 318 786 337 775 q 287 793 305 793 l 225 793 q 195 784 212 793 q 146 741 176 773 q 102 683 116 709 q 98 654 98 675 l 98 63 l 88 0 l 40 0 l 51 81 l 51 657 q 66 720 51 697 q 111 775 80 741 q 158 818 141 808 q 223 838 190 838 l 288 838 q 365 813 333 838 q 425 750 402 784 q 443 680 443 723 l 443 623 q 430 586 443 605 q 369 525 422 573 q 309 458 320 479 q 305 423 305 450 l 305 409 q 325 361 305 380 q 370 341 344 343 l 397 340 l 459 336 q 536 299 505 333 q 568 218 568 265 l 568 150 "},"é":{"x_min":41.671875,"x_max":504.203125,"ha":643,"o":"m 504 286 l 88 286 l 88 155 q 94 125 88 136 q 126 81 104 104 q 166 47 148 58 q 197 40 179 40 l 355 40 q 387 47 375 40 q 451 118 411 61 l 497 100 q 492 92 495 97 q 487 84 488 87 q 429 18 459 41 q 352 -6 397 -6 l 197 -6 q 119 18 151 -6 q 59 84 86 44 q 41 152 41 111 l 41 444 q 59 512 41 486 q 119 579 86 552 q 197 604 151 604 l 350 604 q 427 579 395 604 q 487 512 461 552 q 504 444 504 488 l 504 286 m 456 331 l 456 441 q 452 472 456 462 q 420 516 443 493 q 380 550 398 538 q 348 556 368 556 l 197 556 q 166 550 179 556 q 126 516 148 538 q 94 472 104 493 q 88 441 88 461 l 88 331 l 456 331 m 366 909 l 219 723 l 169 741 l 301 909 l 366 909 "},"s":{"x_min":23.609375,"x_max":481.984375,"ha":621,"o":"m 481 147 q 463 77 481 104 q 409 18 441 43 q 333 -6 377 -6 l 166 -6 q 90 18 122 -6 q 33 84 62 41 q 28 92 31 87 q 23 100 25 97 l 66 116 q 131 47 95 68 q 163 40 144 40 l 331 40 q 362 47 350 40 q 429 118 406 73 q 434 150 434 129 l 434 202 q 415 249 434 230 q 369 270 395 268 l 140 288 q 63 325 94 291 q 31 405 31 358 l 31 451 q 50 520 31 494 q 104 580 72 555 q 180 605 136 605 l 325 605 q 401 580 369 605 q 459 513 431 556 q 464 506 461 511 q 469 498 468 501 l 426 481 q 359 551 398 529 q 329 558 347 558 l 181 558 q 150 551 162 558 q 84 480 106 525 q 79 448 79 469 l 79 404 q 98 357 79 376 q 144 336 118 338 l 373 318 q 450 281 419 315 q 481 200 481 247 l 481 147 "},"B":{"x_min":55.5625,"x_max":580.609375,"ha":736,"o":"m 580 159 q 563 95 580 122 q 533 59 556 84 q 497 23 509 33 q 425 0 466 0 l 55 0 l 55 826 l 425 826 q 497 801 465 826 q 534 765 511 790 q 563 730 558 740 q 580 663 580 704 l 580 547 q 563 481 580 508 q 501 412 552 463 q 563 343 552 361 q 580 277 580 316 l 580 159 m 531 550 l 531 662 q 526 691 531 680 q 495 735 516 712 q 455 769 473 758 q 423 776 443 776 l 105 776 l 105 434 l 425 434 q 454 443 440 434 q 493 476 472 452 q 526 519 515 500 q 531 550 531 531 m 531 162 l 531 276 q 526 305 531 294 q 454 381 501 355 q 425 388 444 388 l 105 388 l 105 50 l 423 50 q 455 56 443 50 q 526 133 501 84 q 531 162 531 144 "},"…":{"x_min":119.453125,"x_max":634.765625,"ha":842,"o":"m 634 0 l 554 0 l 554 94 l 634 94 l 634 0 m 418 0 l 337 0 l 337 94 l 418 94 l 418 0 m 200 0 l 119 0 l 119 94 l 200 94 l 200 0 "},"?":{"x_min":25,"x_max":515.3125,"ha":617,"o":"m 515 569 q 437 448 515 490 l 347 400 q 310 366 326 388 q 294 318 294 343 l 294 243 l 244 243 l 244 325 q 322 444 244 402 l 416 493 q 465 572 465 519 l 466 665 q 461 695 466 683 q 429 738 451 715 q 388 772 406 761 q 356 779 376 779 l 194 779 q 166 773 175 779 q 118 733 145 761 q 77 679 91 705 l 76 676 q 73 670 75 673 l 25 686 q 45 722 36 709 q 126 808 88 784 q 190 829 159 829 l 358 829 q 431 805 401 829 q 467 770 444 797 q 497 733 490 744 q 515 668 515 705 l 515 569 m 311 0 l 229 0 l 229 87 l 311 87 l 311 0 "},"H":{"x_min":55.5625,"x_max":587.546875,"ha":757,"o":"m 587 0 l 537 0 l 537 387 l 105 387 l 105 0 l 55 0 l 55 826 l 105 826 l 105 436 l 537 436 l 537 826 l 587 826 l 587 0 "},"î":{"x_min":-96.109375,"x_max":253.921875,"ha":286,"o":"m 94 0 l 47 0 l 47 597 l 94 597 l 94 0 m 253 743 l 191 744 l 106 854 l 52 854 l -32 744 l -96 744 l 35 909 l 121 909 l 253 743 "},"c":{"x_min":41.671875,"x_max":495.875,"ha":635,"o":"m 495 100 q 491 92 494 97 q 486 84 487 87 q 427 18 458 41 q 351 -6 395 -6 l 195 -6 q 118 18 150 -6 q 58 84 84 44 q 41 152 41 108 l 41 444 q 58 512 41 488 q 118 579 84 552 q 195 604 150 604 l 347 604 q 423 579 391 604 q 481 511 452 555 q 486 503 483 508 q 491 495 490 498 l 448 480 q 381 550 420 527 q 350 556 369 556 l 197 556 q 165 550 177 556 q 125 516 147 538 q 93 472 102 493 q 87 441 87 461 l 87 155 q 93 125 87 136 q 125 81 102 104 q 165 47 147 58 q 197 40 177 40 l 354 40 q 386 47 373 40 q 451 116 422 68 l 495 100 "},"¶":{"x_min":47.21875,"x_max":579.21875,"ha":711,"o":"m 579 0 l 529 0 l 529 388 l 413 388 l 413 0 l 370 0 l 370 388 l 206 388 q 133 413 165 388 q 65 484 81 456 q 47 550 47 512 l 47 670 q 65 736 47 708 q 95 771 70 745 q 133 808 119 797 q 206 833 165 833 l 579 833 l 579 0 m 529 440 l 529 783 l 413 783 l 413 440 l 529 440 m 370 440 l 370 783 l 208 783 q 175 776 187 783 q 104 698 129 748 q 98 668 98 686 l 98 552 q 104 522 98 534 q 175 447 127 475 q 208 440 187 440 l 370 440 "},"−":{"x_min":41.671875,"x_max":465.3125,"ha":625,"o":"m 465 320 l 41 320 l 41 365 l 465 365 l 465 320 "},"≠":{"x_min":0,"x_max":0,"ha":1111},"•":{"x_min":83.34375,"x_max":394.46875,"ha":594,"o":"m 394 334 q 372 261 394 291 q 315 201 351 229 q 258 183 291 183 l 220 183 q 163 201 187 183 q 104 262 125 231 q 83 334 83 291 l 83 363 q 105 436 83 402 q 163 497 123 466 q 220 515 187 515 l 258 515 q 315 497 291 515 q 372 438 355 465 q 394 363 394 405 l 394 334 "},"¥":{"x_min":23.609375,"x_max":563.9375,"ha":654,"o":"m 563 825 l 347 433 l 506 433 l 506 388 l 319 388 l 319 276 l 506 276 l 506 231 l 319 231 l 319 0 l 266 0 l 266 231 l 70 231 l 70 276 l 266 276 l 266 388 l 70 388 l 70 433 l 237 433 l 23 825 l 77 825 l 276 459 l 311 459 l 511 825 l 563 825 "},"(":{"x_min":43.0625,"x_max":269.46875,"ha":471,"o":"m 269 0 l 208 0 q 147 20 180 0 q 98 64 130 31 q 56 113 66 97 q 44 175 44 133 l 43 658 q 56 719 43 695 q 99 770 68 737 q 145 813 130 804 q 208 834 179 834 l 269 834 l 269 784 l 215 784 q 191 779 202 784 q 143 738 172 768 q 100 683 113 708 q 93 655 93 669 l 93 176 q 100 151 93 165 q 143 96 113 126 q 191 55 172 66 q 215 50 202 50 l 269 50 l 269 0 "},"U":{"x_min":44.453125,"x_max":575.046875,"ha":731,"o":"m 575 168 q 559 108 575 134 q 518 57 548 90 q 470 15 487 25 q 409 -5 437 -5 l 211 -5 q 148 15 181 -5 q 101 57 131 25 q 59 108 70 90 q 44 168 44 130 l 44 825 l 94 825 l 94 170 q 101 145 94 163 q 145 90 115 120 q 194 50 175 61 q 218 44 205 44 l 402 44 q 427 50 416 44 q 476 90 447 61 q 518 145 505 120 q 525 170 525 163 l 525 825 l 575 825 l 575 168 "},"◊":{"x_min":108.34375,"x_max":545.875,"ha":770,"o":"m 545 413 q 522 331 545 366 q 451 258 500 297 q 386 238 426 238 l 269 238 q 204 258 229 238 q 165 293 191 268 q 131 331 140 318 q 108 413 108 366 l 108 451 q 131 533 108 497 q 165 572 140 547 q 204 607 191 597 q 269 626 229 626 l 386 626 q 451 607 426 626 q 522 533 500 568 q 545 451 545 497 l 545 413 m 501 415 l 501 450 q 494 484 501 470 q 459 531 483 505 q 418 569 436 558 q 387 575 406 575 l 268 575 q 237 569 248 575 q 195 531 219 558 q 161 484 172 505 q 154 450 154 470 l 154 415 q 161 380 154 394 q 195 333 172 359 q 237 295 219 306 q 268 290 248 290 l 387 290 q 418 295 406 290 q 459 333 436 306 q 494 380 483 359 q 501 415 501 394 "},"Ñ":{"x_min":55.5625,"x_max":580.609375,"ha":750,"o":"m 580 0 l 487 0 l 118 779 l 102 779 l 102 0 l 55 0 l 55 823 l 148 823 l 519 44 l 533 44 l 533 823 l 580 823 l 580 0 m 503 986 l 458 972 q 382 1015 435 1025 l 281 982 q 203 992 240 968 q 150 1064 167 1015 l 194 1078 q 271 1035 218 1025 l 372 1068 q 449 1058 412 1082 q 503 986 486 1035 "},"F":{"x_min":55.5625,"x_max":511.15625,"ha":645,"o":"m 511 775 l 104 775 l 104 436 l 490 436 l 490 387 l 104 387 l 104 0 l 55 0 l 55 825 l 511 825 l 511 775 "},":":{"x_min":119.453125,"x_max":204.1875,"ha":400,"o":"m 204 415 l 119 415 l 119 505 l 204 505 l 204 415 m 204 0 l 119 0 l 119 90 l 204 90 l 204 0 "},"Û":{"x_min":44.453125,"x_max":575.046875,"ha":742,"o":"m 575 168 q 559 108 575 134 q 518 57 548 90 q 470 15 487 25 q 409 -5 437 -5 l 211 -5 q 148 15 181 -5 q 101 57 131 25 q 59 108 70 90 q 44 168 44 130 l 44 825 l 94 825 l 94 170 q 101 145 94 163 q 145 90 115 120 q 194 50 175 61 q 218 44 205 44 l 402 44 q 427 50 416 44 q 476 90 447 61 q 518 145 505 120 q 525 170 525 163 l 525 825 l 575 825 l 575 168 m 499 944 l 437 945 l 352 1055 l 298 1055 l 213 945 l 149 945 l 281 1110 l 367 1110 l 499 944 "},"*":{"x_min":44.453125,"x_max":476.421875,"ha":635,"o":"m 476 490 l 441 477 l 284 654 l 276 644 l 276 441 l 243 441 l 243 643 l 233 652 l 79 477 l 44 490 l 170 629 l 170 668 l 44 809 l 79 820 l 233 652 l 243 663 l 243 858 l 276 858 l 276 663 l 284 654 l 441 820 l 476 809 l 348 668 l 348 629 l 476 490 "},"†":{"x_min":69.453125,"x_max":309.75,"ha":463,"o":"m 309 531 l 211 531 l 211 163 l 166 163 l 166 531 l 69 531 l 69 577 l 166 577 l 166 823 l 211 823 l 211 577 l 309 577 l 309 531 "},"°":{"x_min":41.671875,"x_max":352.8125,"ha":519,"o":"m 352 832 q 330 758 352 788 q 273 698 309 726 q 216 680 250 680 l 179 680 q 122 698 145 680 q 62 759 83 729 q 41 832 41 788 l 41 861 q 63 933 41 900 q 122 994 86 966 q 179 1012 145 1012 l 216 1012 q 273 994 250 1012 q 330 934 309 966 q 352 861 352 904 l 352 832 m 320 832 l 320 859 q 315 891 320 879 q 247 969 288 944 q 218 975 238 975 l 176 975 q 148 969 156 975 q 80 891 106 944 q 73 859 73 877 l 73 832 q 80 801 73 815 q 148 723 106 748 q 176 716 159 716 l 219 716 q 247 723 236 716 q 315 801 288 748 q 320 832 320 813 "},"V":{"x_min":20.828125,"x_max":655.609375,"ha":750,"o":"m 655 826 l 388 0 l 287 0 l 20 826 l 72 826 l 318 48 l 359 51 l 604 826 l 655 826 "},"å":{"x_min":13.890625,"x_max":491.703125,"ha":639,"o":"m 415 843 q 393 772 415 802 q 366 741 384 759 q 337 718 347 723 q 279 700 308 700 l 241 700 q 184 718 211 700 q 125 773 147 743 q 104 843 104 801 l 104 869 q 126 938 104 908 q 184 994 150 970 q 241 1012 211 1012 l 279 1012 q 337 994 308 1012 q 366 970 347 988 q 393 940 384 952 q 415 869 415 909 l 415 843 m 383 843 l 383 868 q 377 900 383 888 q 309 972 351 948 q 280 976 302 976 l 238 976 q 211 972 216 976 q 143 898 169 947 q 136 868 136 884 l 136 843 q 143 812 136 823 q 172 772 152 794 q 211 740 193 750 q 238 734 219 734 l 281 734 q 309 740 298 734 q 377 812 351 763 q 383 843 383 820 m 491 -1 l 444 -1 l 433 88 q 362 19 393 43 q 302 -8 323 -8 l 166 -8 q 90 16 122 -8 q 31 79 54 44 q 13 147 13 105 l 13 176 q 31 243 13 216 q 90 306 55 280 q 166 331 122 331 l 436 331 l 436 433 q 431 462 436 452 q 400 504 422 481 q 359 537 377 526 q 327 545 344 545 l 183 545 q 152 537 168 545 q 97 480 138 529 q 88 470 94 476 l 43 486 q 47 493 44 488 q 52 501 51 498 q 109 568 84 548 q 187 591 140 591 l 329 591 q 406 566 375 591 q 466 502 444 537 q 483 434 483 479 l 483 84 l 491 -1 m 437 138 l 437 286 l 168 286 q 136 277 150 286 q 66 204 93 254 q 61 175 61 193 l 61 148 q 66 119 61 130 q 136 44 94 68 q 168 37 148 37 l 298 37 q 325 43 313 37 q 437 138 409 87 "}," ":{"x_min":0,"x_max":0,"ha":278},"0":{"x_min":43.0625,"x_max":540.328125,"ha":686,"o":"m 540 154 q 522 90 540 118 q 492 52 515 79 q 456 18 469 26 q 383 -5 426 -5 l 198 -5 q 126 18 156 -5 q 90 52 113 26 q 61 90 68 79 q 43 154 43 118 l 43 669 q 61 734 43 707 q 90 772 68 745 q 126 807 113 798 q 198 830 156 830 l 383 830 q 456 807 426 830 q 492 772 469 798 q 522 734 515 745 q 540 669 540 707 l 540 154 m 490 156 l 490 666 q 484 697 490 684 q 413 773 459 745 q 381 780 401 780 l 200 780 q 168 773 180 780 q 127 739 150 762 q 95 697 105 716 q 91 666 91 687 l 91 156 q 95 127 91 137 q 127 85 105 108 q 168 51 150 62 q 200 44 180 44 l 381 44 q 413 51 401 44 q 484 127 459 79 q 490 156 490 138 "},"”":{"x_min":88.890625,"x_max":341.6875,"ha":508,"o":"m 341 712 l 334 641 l 288 641 l 297 730 l 297 909 l 341 909 l 341 712 m 141 712 l 134 641 l 88 641 l 97 730 l 97 909 l 141 909 l 141 712 "},"¾":{"x_min":25,"x_max":738.953125,"ha":908,"o":"m 652 838 l 229 0 l 176 0 l 600 838 l 652 838 m 336 558 q 320 511 336 531 q 268 463 313 502 q 206 444 244 444 l 144 444 q 87 459 111 444 l 25 509 l 51 536 q 65 525 55 533 q 80 512 75 516 q 116 487 95 500 q 141 481 126 481 l 204 481 q 233 488 222 481 q 243 493 236 490 q 252 499 250 497 q 261 504 255 501 q 271 511 268 508 q 279 519 275 515 q 286 527 283 523 q 293 537 290 531 l 294 540 q 298 558 298 551 q 280 608 295 595 q 272 613 277 611 q 266 616 268 616 q 248 626 262 619 l 148 626 l 148 658 l 248 658 q 266 668 262 665 q 297 712 293 682 l 298 723 q 295 743 301 737 l 294 744 q 293 745 293 744 q 233 797 280 770 q 204 802 225 802 l 141 802 q 116 797 127 802 q 80 770 105 790 q 65 760 75 768 q 51 748 55 752 l 25 775 q 87 822 68 809 q 144 840 113 840 l 206 840 q 268 819 243 840 q 298 795 276 812 q 308 787 304 791 q 316 779 312 783 q 320 773 319 775 q 336 727 336 752 l 336 705 q 306 641 336 669 q 336 580 336 612 l 336 558 m 738 104 l 670 104 l 670 1 l 641 1 l 641 104 l 436 104 l 436 145 l 634 397 l 670 397 l 670 136 l 738 136 l 738 104 m 641 136 l 641 359 l 466 136 l 641 136 "},"@":{"x_min":43.0625,"x_max":593.109375,"ha":739,"o":"m 593 184 l 554 184 l 538 252 q 495 205 505 212 l 477 187 q 458 177 468 177 l 354 177 q 273 201 304 177 q 216 265 240 226 q 200 331 200 291 l 200 429 q 216 495 200 469 q 273 558 238 531 q 350 580 302 580 l 538 580 l 538 658 q 533 686 538 676 q 488 743 519 711 q 437 786 456 775 q 412 791 426 791 l 213 791 q 190 786 201 791 q 138 741 170 775 q 91 683 105 708 q 84 655 84 669 l 84 176 q 91 151 84 165 q 138 93 105 126 q 190 48 170 59 q 213 43 201 43 l 513 43 l 520 0 l 206 0 q 145 20 179 0 q 98 63 129 30 q 56 113 68 95 q 43 175 43 137 l 43 658 q 55 719 43 700 q 97 770 66 737 q 145 813 129 804 q 206 834 179 834 l 415 834 q 477 813 444 834 q 566 719 526 783 q 581 658 581 695 l 581 270 l 593 184 m 538 297 l 538 537 l 348 537 q 316 531 326 537 q 245 456 269 504 q 241 426 241 447 l 241 334 q 245 301 241 311 q 276 260 255 281 q 316 227 297 238 q 348 222 326 222 l 434 222 q 461 227 450 222 q 538 297 495 247 "},"ö":{"x_min":34.71875,"x_max":495.875,"ha":635,"o":"m 495 152 q 479 84 495 108 q 419 18 452 44 q 341 -6 387 -6 l 188 -6 q 111 18 143 -6 q 51 84 77 44 q 34 152 34 108 l 34 444 q 51 512 34 488 q 111 579 77 552 q 188 604 143 604 l 341 604 q 419 579 387 604 q 479 512 452 552 q 495 444 495 488 l 495 152 m 448 155 l 448 441 q 444 472 448 462 q 412 516 434 493 q 372 550 390 538 q 340 556 359 556 l 190 556 q 158 550 170 556 q 118 516 140 538 q 86 472 95 493 q 80 441 80 461 l 80 155 q 86 125 80 136 q 118 81 95 104 q 158 47 140 58 q 190 40 170 40 l 340 40 q 372 47 359 40 q 412 81 390 58 q 444 125 434 104 q 448 155 448 134 m 393 770 l 323 770 l 323 845 l 393 845 l 393 770 m 201 770 l 131 770 l 131 845 l 201 845 l 201 770 "},"i":{"x_min":47.21875,"x_max":111.125,"ha":265,"o":"m 111 770 l 47 770 l 47 840 l 111 840 l 111 770 m 101 0 l 54 0 l 54 588 l 101 588 l 101 0 "},"≤":{"x_min":34.71875,"x_max":486.15625,"ha":622,"o":"m 486 619 l 122 402 l 122 366 l 484 150 l 484 93 l 34 362 l 34 408 l 486 676 l 486 619 "},"Õ":{"x_min":56.953125,"x_max":622.265625,"ha":775,"o":"m 622 168 q 607 106 622 130 q 565 56 595 88 q 518 13 534 23 q 455 -6 484 -6 l 222 -6 q 161 13 194 -6 q 112 57 144 25 q 70 106 80 90 q 56 168 56 130 l 56 651 q 70 712 56 688 q 113 763 81 730 q 161 807 144 797 q 222 827 194 827 l 455 827 q 518 807 484 827 q 564 763 533 797 q 607 712 595 730 q 622 651 622 686 l 622 168 m 572 169 l 572 648 q 566 676 572 666 q 523 731 552 701 q 475 772 494 761 q 450 777 463 777 l 229 777 q 205 772 216 777 q 156 731 186 761 q 112 676 126 701 q 105 648 105 665 l 105 169 q 112 144 105 161 q 156 89 126 119 q 205 48 186 59 q 229 43 216 43 l 450 43 q 475 48 463 43 q 523 89 494 59 q 566 144 552 119 q 572 169 572 155 m 523 943 l 478 929 q 402 972 455 982 l 301 939 q 223 949 260 925 q 170 1021 187 972 l 214 1035 q 291 992 238 982 l 392 1025 q 469 1015 432 1039 q 523 943 506 992 "},"]":{"x_min":97.234375,"x_max":280.578125,"ha":425,"o":"m 280 0 l 97 0 l 97 41 l 230 41 l 230 783 l 97 783 l 97 825 l 280 825 l 280 0 "},"m":{"x_min":43.0625,"x_max":822.28125,"ha":978,"o":"m 822 0 l 776 0 l 776 441 q 770 472 776 461 q 738 516 761 493 q 698 550 716 538 q 666 555 690 555 l 600 555 q 572 550 580 555 q 462 456 487 500 l 462 444 l 462 0 l 416 0 l 416 441 q 411 472 416 461 q 379 516 401 493 q 338 550 356 538 q 306 555 330 555 l 236 555 q 209 550 220 555 q 170 520 198 544 q 119 476 143 497 l 97 455 l 97 0 l 50 0 l 50 508 l 43 598 l 90 598 l 101 512 q 172 577 129 543 q 231 604 205 604 l 308 604 q 386 579 354 604 q 444 513 419 551 l 455 502 q 534 577 486 540 q 595 604 568 604 l 668 604 q 745 579 713 604 q 805 512 779 552 q 822 444 822 488 l 822 0 "},"8":{"x_min":43.0625,"x_max":540.328125,"ha":686,"o":"m 540 152 q 522 87 540 115 q 492 50 515 76 q 456 15 469 23 q 384 -8 426 -8 l 198 -8 q 126 15 156 -8 q 90 50 113 23 q 61 87 68 76 q 43 152 43 115 l 43 283 q 61 347 43 320 q 123 416 72 365 q 61 487 77 459 q 43 551 43 513 l 43 670 q 61 737 43 708 q 90 772 66 747 q 126 808 113 797 q 198 832 156 832 l 384 832 q 456 808 426 832 q 493 772 469 797 q 522 737 516 747 q 540 670 540 708 l 540 551 q 522 487 540 513 q 459 416 505 459 q 522 347 511 365 q 540 283 540 320 l 540 152 m 490 554 l 490 668 q 484 698 490 686 q 453 742 475 719 q 413 776 431 765 q 383 783 401 783 l 200 783 q 168 776 180 783 q 97 698 126 752 q 91 668 91 686 l 91 554 q 97 523 91 536 q 168 447 125 470 q 200 441 177 441 l 383 441 q 413 448 401 441 q 484 523 461 476 q 490 554 490 536 m 490 154 l 490 280 q 484 309 490 298 q 413 384 461 356 q 383 393 400 393 l 200 393 q 168 384 183 393 q 97 309 120 356 q 91 280 91 298 l 91 154 q 97 125 91 136 q 168 48 122 76 q 200 41 180 41 l 383 41 q 413 48 401 41 q 484 125 459 76 q 490 154 490 136 "},"ž":{"x_min":0,"x_max":0,"ha":664},"R":{"x_min":55.5625,"x_max":613.9375,"ha":756,"o":"m 613 0 l 559 0 l 355 386 l 105 386 l 105 0 l 55 0 l 55 825 l 425 825 q 497 801 466 825 q 533 766 509 791 q 563 729 556 740 q 581 663 581 701 l 581 544 q 563 480 581 508 q 534 445 558 470 q 497 409 511 420 q 406 384 472 388 l 613 0 m 530 547 l 530 661 q 526 691 530 682 q 495 735 516 712 q 455 769 473 758 q 423 775 445 775 l 105 775 l 105 434 l 423 434 q 455 443 441 434 q 495 475 475 454 q 526 516 516 497 q 530 547 530 526 "},"á":{"x_min":20.828125,"x_max":498.65625,"ha":639,"o":"m 498 -1 l 451 -1 l 440 79 q 410 48 423 61 q 384 27 397 36 q 369 18 372 19 q 309 -8 336 -8 l 173 -8 q 97 16 129 -8 q 38 81 63 41 q 20 150 20 108 l 20 179 q 38 248 20 222 q 97 312 62 286 q 173 337 129 337 l 443 337 l 443 441 q 438 470 443 461 q 406 514 429 491 q 366 548 384 537 q 334 555 354 555 l 190 555 q 159 548 172 555 q 104 490 141 538 q 95 479 98 481 l 50 495 q 54 503 51 498 q 59 511 58 508 q 116 579 93 562 q 194 602 147 602 l 336 602 q 413 577 381 602 q 473 512 450 550 q 490 443 490 488 l 490 87 l 498 -1 m 444 141 l 444 291 l 175 291 q 143 283 158 291 q 73 208 97 255 q 68 177 68 197 l 68 151 q 73 122 68 133 q 143 45 98 73 q 175 38 155 38 l 305 38 q 331 44 320 38 q 444 141 416 88 m 366 909 l 219 723 l 169 741 l 301 909 l 366 909 "},"×":{"x_min":0,"x_max":0,"ha":833},"o":{"x_min":34.71875,"x_max":495.875,"ha":635,"o":"m 495 152 q 479 84 495 108 q 419 18 452 44 q 341 -6 387 -6 l 188 -6 q 111 18 143 -6 q 51 84 77 44 q 34 152 34 108 l 34 444 q 51 512 34 488 q 111 579 77 552 q 188 604 143 604 l 341 604 q 419 579 387 604 q 479 512 452 552 q 495 444 495 488 l 495 152 m 448 155 l 448 441 q 444 472 448 462 q 412 516 434 493 q 372 550 390 538 q 340 556 359 556 l 190 556 q 158 550 170 556 q 118 516 140 538 q 86 472 95 493 q 80 441 80 461 l 80 155 q 86 125 80 136 q 118 81 95 104 q 158 47 140 58 q 190 40 170 40 l 340 40 q 372 47 359 40 q 412 81 390 58 q 444 125 434 104 q 448 155 448 134 "},"5":{"x_min":48.609375,"x_max":545.875,"ha":686,"o":"m 545 154 q 527 88 545 116 q 497 51 520 77 q 462 16 475 25 q 388 -6 431 -6 l 213 -6 q 151 13 184 -6 q 70 98 111 38 q 48 136 59 115 l 98 150 q 101 145 100 148 q 102 143 102 144 q 145 88 118 116 q 191 48 172 59 q 218 43 202 43 l 387 43 q 420 50 408 43 q 490 126 465 76 q 495 155 495 137 l 495 318 q 490 350 495 337 q 459 392 480 370 q 420 425 438 413 q 387 431 408 431 l 81 431 l 81 826 l 502 826 l 502 776 l 130 776 l 130 480 l 388 480 q 462 455 430 480 q 499 420 476 444 q 527 386 522 395 q 545 322 545 358 l 545 154 "},"õ":{"x_min":34.71875,"x_max":495.875,"ha":635,"o":"m 495 152 q 479 84 495 108 q 419 18 452 44 q 341 -6 387 -6 l 188 -6 q 111 18 143 -6 q 51 84 77 44 q 34 152 34 108 l 34 444 q 51 512 34 488 q 111 579 77 552 q 188 604 143 604 l 341 604 q 419 579 387 604 q 479 512 452 552 q 495 444 495 488 l 495 152 m 448 155 l 448 441 q 444 472 448 462 q 412 516 434 493 q 372 550 390 538 q 340 556 359 556 l 190 556 q 158 550 170 556 q 118 516 140 538 q 86 472 95 493 q 80 441 80 461 l 80 155 q 86 125 80 136 q 118 81 95 104 q 158 47 140 58 q 190 40 170 40 l 340 40 q 372 47 359 40 q 412 81 390 58 q 444 125 434 104 q 448 155 448 134 m 422 794 l 377 780 q 301 823 354 833 l 200 790 q 122 800 159 776 q 69 872 86 823 l 113 886 q 190 843 137 833 l 291 876 q 368 866 331 890 q 422 794 405 843 "},"7":{"x_min":43.0625,"x_max":526.4375,"ha":686,"o":"m 526 762 l 176 0 l 119 1 l 473 775 l 43 775 l 43 825 l 526 825 l 526 762 "},"K":{"x_min":55.5625,"x_max":548.65625,"ha":676,"o":"m 548 0 l 484 0 l 141 388 l 104 388 l 104 0 l 55 0 l 55 825 l 104 825 l 104 434 l 141 434 l 483 825 l 547 825 l 183 412 l 548 0 "},",":{"x_min":44.453125,"x_max":175.015625,"ha":407,"o":"m 175 88 l 100 -120 l 44 -120 l 127 108 l 175 88 "},"d":{"x_min":41.671875,"x_max":509.765625,"ha":657,"o":"m 509 0 l 462 0 l 451 86 q 379 19 413 44 q 318 -6 341 -6 l 195 -6 q 119 18 151 -6 q 59 83 83 45 q 41 151 41 109 l 41 438 q 59 506 41 480 q 119 572 94 555 q 195 595 150 595 l 318 595 q 379 570 344 595 q 455 500 429 530 l 455 838 l 502 838 l 502 87 l 509 0 m 455 147 l 455 441 l 452 447 q 450 452 452 450 q 340 544 426 495 q 313 550 329 550 l 197 550 q 165 543 177 550 q 94 466 122 519 q 88 434 88 455 l 88 154 q 94 122 88 133 q 165 47 120 72 q 197 38 180 38 l 313 38 q 340 44 329 38 q 400 84 365 56 q 450 137 434 112 q 451 140 450 138 l 452 141 q 455 147 454 143 "},"¨":{"x_min":131.953125,"x_max":393.09375,"ha":504,"o":"m 393 770 l 323 770 l 323 845 l 393 845 l 393 770 m 201 770 l 131 770 l 131 845 l 201 845 l 201 770 "},"Ô":{"x_min":56.953125,"x_max":622.265625,"ha":775,"o":"m 622 168 q 607 106 622 130 q 565 56 595 88 q 518 13 534 23 q 455 -6 484 -6 l 222 -6 q 161 13 194 -6 q 112 57 144 25 q 70 106 80 90 q 56 168 56 130 l 56 651 q 70 712 56 688 q 113 763 81 730 q 161 807 144 797 q 222 827 194 827 l 455 827 q 518 807 484 827 q 564 763 533 797 q 607 712 595 730 q 622 651 622 686 l 622 168 m 572 169 l 572 648 q 566 676 572 666 q 523 731 552 701 q 475 772 494 761 q 450 777 463 777 l 229 777 q 205 772 216 777 q 156 731 186 761 q 112 676 126 701 q 105 648 105 665 l 105 169 q 112 144 105 161 q 156 89 126 119 q 205 48 186 59 q 229 43 216 43 l 450 43 q 475 48 463 43 q 523 89 494 59 q 566 144 552 119 q 572 169 572 155 m 519 944 l 457 945 l 372 1055 l 318 1055 l 233 945 l 169 945 l 301 1110 l 387 1110 l 519 944 "},"E":{"x_min":55.5625,"x_max":511.15625,"ha":682,"o":"m 511 0 l 55 0 l 55 825 l 511 825 l 511 775 l 104 775 l 104 436 l 511 436 l 511 387 l 104 387 l 104 50 l 511 50 l 511 0 "},"Y":{"x_min":26.390625,"x_max":561.15625,"ha":645,"o":"m 561 825 l 318 381 l 318 0 l 268 0 l 268 381 l 26 825 l 76 825 l 277 452 l 309 452 l 512 825 l 561 825 "},"\"":{"x_min":88.890625,"x_max":341.6875,"ha":508,"o":"m 341 712 l 334 641 l 288 641 l 297 730 l 297 909 l 341 909 l 341 712 m 141 712 l 134 641 l 88 641 l 97 730 l 97 909 l 141 909 l 141 712 "},"‹":{"x_min":102.78125,"x_max":331.96875,"ha":556,"o":"m 331 554 l 175 380 l 175 336 l 330 161 l 279 144 l 102 347 l 102 368 l 279 572 l 331 554 "},"˙":{"x_min":47.21875,"x_max":111.125,"ha":265,"o":"m 111 770 l 47 770 l 47 840 l 111 840 l 111 770 "},"ê":{"x_min":41.671875,"x_max":504.203125,"ha":643,"o":"m 504 286 l 88 286 l 88 155 q 94 125 88 136 q 126 81 104 104 q 166 47 148 58 q 197 40 179 40 l 355 40 q 387 47 375 40 q 451 118 411 61 l 497 100 q 492 92 495 97 q 487 84 488 87 q 429 18 459 41 q 352 -6 397 -6 l 197 -6 q 119 18 151 -6 q 59 84 86 44 q 41 152 41 111 l 41 444 q 59 512 41 486 q 119 579 86 552 q 197 604 151 604 l 350 604 q 427 579 395 604 q 487 512 461 552 q 504 444 504 488 l 504 286 m 456 331 l 456 441 q 452 472 456 462 q 420 516 443 493 q 380 550 398 538 q 348 556 368 556 l 197 556 q 166 550 179 556 q 126 516 148 538 q 94 472 104 493 q 88 441 88 461 l 88 331 l 456 331 m 438 743 l 376 744 l 291 854 l 237 854 l 152 744 l 88 744 l 220 909 l 306 909 l 438 743 "},"Ï":{"x_min":-49.046875,"x_max":212.09375,"ha":319,"o":"m 105 0 l 55 0 l 55 825 l 105 825 l 105 0 m 212 962 l 142 962 l 142 1037 l 212 1037 l 212 962 m 20 962 l -49 962 l -49 1037 l 20 1037 l 20 962 "},"„":{"x_min":88.890625,"x_max":341.6875,"ha":508,"o":"m 341 712 l 334 641 l 288 641 l 297 730 l 297 909 l 341 909 l 341 712 m 141 712 l 134 641 l 88 641 l 97 730 l 97 909 l 141 909 l 141 712 "},"Â":{"x_min":-6.9375,"x_max":627.828125,"ha":739,"o":"m 627 0 l 575 0 l 512 197 l 108 197 l 44 0 l -6 0 l 259 827 l 361 827 l 627 0 m 497 247 l 330 775 l 288 775 l 123 247 l 497 247 m 478 940 l 416 941 l 331 1051 l 277 1051 l 192 941 l 128 941 l 260 1106 l 346 1106 l 478 940 "},"Í":{"x_min":5.453125,"x_max":202.703125,"ha":319,"o":"m 105 0 l 55 0 l 55 825 l 105 825 l 105 0 m 202 1109 l 55 923 l 5 941 l 137 1109 l 202 1109 "},"´":{"x_min":169.453125,"x_max":366.703125,"ha":515,"o":"m 366 909 l 219 723 l 169 741 l 301 909 l 366 909 "},"ì":{"x_min":-80.875,"x_max":116.359375,"ha":286,"o":"m 94 0 l 47 0 l 47 597 l 94 597 l 94 0 m 116 741 l 66 723 l -80 909 l -15 909 l 116 741 "},"±":{"x_min":0,"x_max":0,"ha":695},"Ú":{"x_min":44.453125,"x_max":575.046875,"ha":742,"o":"m 575 168 q 559 108 575 134 q 518 57 548 90 q 470 15 487 25 q 409 -5 437 -5 l 211 -5 q 148 15 181 -5 q 101 57 131 25 q 59 108 70 90 q 44 168 44 130 l 44 825 l 94 825 l 94 170 q 101 145 94 163 q 145 90 115 120 q 194 50 175 61 q 218 44 205 44 l 402 44 q 427 50 416 44 q 476 90 447 61 q 518 145 505 120 q 525 170 525 163 l 525 825 l 575 825 l 575 168 m 410 1110 l 263 924 l 213 942 l 345 1110 l 410 1110 "},"|":{"x_min":27.78125,"x_max":73.609375,"ha":213,"o":"m 73 -129 l 27 -129 l 27 940 l 73 940 l 73 -129 "},"§":{"x_min":41.578125,"x_max":541.703125,"ha":688,"o":"m 541 406 q 518 327 541 361 q 461 266 515 323 q 538 155 538 226 l 538 136 q 520 75 538 105 q 466 15 498 40 q 390 -9 434 -9 l 191 -9 q 115 15 147 -9 q 56 80 81 40 q 52 88 55 83 q 47 95 48 93 l 91 112 q 158 43 118 68 q 188 36 179 36 l 388 36 q 419 43 398 36 q 486 115 461 69 q 491 138 491 127 l 491 158 q 472 206 491 186 q 426 227 454 226 l 215 238 l 212 238 q 190 240 197 238 q 147 258 166 244 q 109 290 134 266 q 75 327 83 315 q 51 406 51 358 l 51 420 q 75 501 51 468 q 130 558 83 513 q 43 675 50 594 l 41 694 q 59 761 40 730 q 113 820 84 798 q 190 845 145 845 l 388 845 q 465 820 433 845 q 523 754 491 802 q 528 746 525 751 q 533 738 531 741 l 490 723 q 423 791 463 769 q 391 798 412 798 l 191 798 q 161 791 173 798 q 94 722 115 765 q 90 670 87 708 q 110 624 93 644 q 154 602 127 604 l 356 591 l 391 588 q 447 570 425 586 q 484 538 458 562 q 518 501 509 513 q 541 420 541 465 l 541 406 m 497 404 l 497 420 q 488 452 497 441 q 413 534 454 511 q 383 541 404 541 l 211 548 q 179 541 191 551 q 138 504 161 530 q 105 456 116 477 q 97 423 97 445 l 97 408 q 104 375 97 387 q 179 291 140 313 q 195 288 183 288 q 208 287 204 288 l 381 277 q 413 283 405 277 q 456 322 433 294 q 490 372 479 351 q 497 404 497 384 "},"Ý":{"x_min":0,"x_max":0,"ha":626},"b":{"x_min":43.0625,"x_max":511.15625,"ha":657,"o":"m 511 151 q 493 83 511 109 q 433 18 469 45 q 356 -6 401 -6 l 234 -6 q 173 19 211 -6 q 101 86 138 44 l 90 0 l 43 0 l 50 87 l 50 838 l 97 838 l 97 500 q 173 570 123 530 q 234 595 208 595 l 356 595 q 433 572 402 595 q 493 505 458 552 q 511 438 511 479 l 511 151 m 463 154 l 463 434 q 458 466 463 455 q 387 543 430 519 q 355 550 375 550 l 238 550 q 212 544 223 550 q 102 452 126 495 q 100 447 100 450 q 97 441 98 445 l 97 147 l 100 141 l 101 140 q 102 137 102 138 q 152 84 118 112 q 212 44 187 56 q 238 38 223 38 l 355 38 q 387 47 372 38 q 458 122 431 72 q 463 154 463 133 "},"q":{"x_min":41.671875,"x_max":509.765625,"ha":656,"o":"m 509 593 l 502 505 l 502 -245 l 455 -245 l 455 93 q 428 63 441 76 q 407 45 415 51 q 391 33 400 40 q 379 23 381 26 q 318 -2 341 -2 l 195 -2 q 119 20 150 -2 q 59 87 94 40 q 41 154 41 113 l 41 441 q 59 509 41 483 q 119 575 83 547 q 195 600 151 600 l 318 600 q 379 572 340 600 q 451 506 418 544 l 462 593 l 509 593 m 455 151 l 455 445 l 452 451 q 451 452 452 452 q 450 455 450 454 q 400 508 434 480 q 340 548 365 536 q 313 554 329 554 l 197 554 q 165 545 180 554 q 94 470 120 520 q 88 438 88 459 l 88 158 q 94 126 88 137 q 165 50 122 73 q 197 43 177 43 l 313 43 q 340 48 329 43 q 450 140 426 97 q 452 145 452 143 q 455 151 454 147 "},"Ω":{"x_min":0,"x_max":0,"ha":695},"Ö":{"x_min":56.953125,"x_max":622.265625,"ha":775,"o":"m 622 168 q 607 106 622 130 q 565 56 595 88 q 518 13 534 23 q 455 -6 484 -6 l 222 -6 q 161 13 194 -6 q 112 57 144 25 q 70 106 80 90 q 56 168 56 130 l 56 651 q 70 712 56 688 q 113 763 81 730 q 161 807 144 797 q 222 827 194 827 l 455 827 q 518 807 484 827 q 564 763 533 797 q 607 712 595 730 q 622 651 622 686 l 622 168 m 572 169 l 572 648 q 566 676 572 666 q 523 731 552 701 q 475 772 494 761 q 450 777 463 777 l 229 777 q 205 772 216 777 q 156 731 186 761 q 112 676 126 701 q 105 648 105 665 l 105 169 q 112 144 105 161 q 156 89 126 119 q 205 48 186 59 q 229 43 216 43 l 450 43 q 475 48 463 43 q 523 89 494 59 q 566 144 552 119 q 572 169 572 155 m 468 952 l 398 952 l 398 1027 l 468 1027 l 468 952 m 276 952 l 206 952 l 206 1027 l 276 1027 l 276 952 "},"ﬂ":{"x_min":0,"x_max":0,"ha":668},"z":{"x_min":44.453125,"x_max":463.921875,"ha":589,"o":"m 463 0 l 55 0 l 55 50 l 393 547 l 44 547 l 44 597 l 448 597 l 448 544 l 111 50 l 463 50 l 463 0 "},"™":{"x_min":54.171875,"x_max":690.328125,"ha":846,"o":"m 690 441 l 657 440 l 657 826 l 541 597 l 512 597 l 406 832 l 406 440 l 372 440 l 372 836 l 443 836 l 527 650 l 619 836 l 690 836 l 690 441 m 294 800 l 197 800 l 197 440 l 162 440 l 162 798 l 54 798 l 54 836 l 294 836 l 294 800 "},"ã":{"x_min":20.828125,"x_max":498.65625,"ha":639,"o":"m 498 -1 l 451 -1 l 440 79 q 410 48 423 61 q 384 27 397 36 q 369 18 372 19 q 309 -8 336 -8 l 173 -8 q 97 16 129 -8 q 38 81 63 41 q 20 150 20 108 l 20 179 q 38 248 20 222 q 97 312 62 286 q 173 337 129 337 l 443 337 l 443 441 q 438 470 443 461 q 406 514 429 491 q 366 548 384 537 q 334 555 354 555 l 190 555 q 159 548 172 555 q 104 490 141 538 q 95 479 98 481 l 50 495 q 54 503 51 498 q 59 511 58 508 q 116 579 93 562 q 194 602 147 602 l 336 602 q 413 577 381 602 q 473 512 450 550 q 490 443 490 488 l 490 87 l 498 -1 m 444 141 l 444 291 l 175 291 q 143 283 158 291 q 73 208 97 255 q 68 177 68 197 l 68 151 q 73 122 68 133 q 143 45 98 73 q 175 38 155 38 l 305 38 q 331 44 320 38 q 444 141 416 88 m 422 794 l 377 780 q 301 823 354 833 l 200 790 q 122 800 159 776 q 69 872 86 823 l 113 886 q 190 843 137 833 l 291 876 q 368 866 331 890 q 422 794 405 843 "},"æ":{"x_min":13.890625,"x_max":891.734375,"ha":1031,"o":"m 891 293 l 477 293 l 477 159 l 477 155 q 481 131 477 141 q 513 88 491 111 q 554 54 536 65 q 586 47 566 47 l 743 47 q 775 54 762 47 q 840 123 811 75 l 883 106 q 878 99 882 104 q 873 91 875 94 q 816 25 844 48 q 740 0 784 0 l 584 0 q 506 25 538 0 q 454 81 479 48 q 400 25 431 52 q 323 0 368 0 l 295 0 l 173 0 l 166 0 q 90 25 122 0 q 31 88 55 51 q 13 156 13 116 l 13 187 q 31 255 13 227 q 90 319 55 293 q 166 344 122 344 l 430 344 l 430 450 l 430 455 q 425 480 430 470 q 354 556 397 533 q 322 563 341 563 l 183 562 q 152 556 162 562 q 86 487 113 534 l 43 502 q 47 510 44 505 q 52 518 51 515 q 111 586 81 562 q 187 611 143 611 l 323 611 q 400 586 368 611 q 454 527 427 561 q 506 584 479 561 q 584 609 538 609 l 737 609 q 813 584 782 609 q 873 519 850 556 q 891 450 891 493 l 891 293 m 844 338 l 844 448 q 838 477 844 466 q 768 555 813 527 q 736 562 755 562 l 586 562 q 554 555 566 562 q 513 521 536 544 q 481 477 491 498 q 477 455 477 466 l 477 451 l 477 338 l 844 338 m 430 162 l 430 298 l 168 298 q 136 290 150 298 q 66 216 90 262 q 61 184 61 205 l 61 159 q 66 129 61 140 q 97 86 76 108 q 136 54 118 65 q 166 47 143 50 l 322 47 q 354 54 341 47 q 425 131 400 81 q 430 162 430 143 "},"®":{"x_min":43.0625,"x_max":716.71875,"ha":863,"o":"m 716 175 q 700 113 716 138 q 658 64 688 97 q 611 20 627 31 q 547 0 577 0 l 208 0 q 145 20 179 0 q 98 64 129 31 q 56 113 68 97 q 43 175 43 137 l 43 657 q 56 718 43 694 q 98 770 68 736 q 145 813 129 804 q 208 834 179 834 l 547 834 q 611 813 577 834 q 658 770 627 804 q 700 718 688 736 q 716 657 716 693 l 716 175 m 668 654 q 661 682 668 670 q 616 738 647 707 q 565 780 584 769 q 540 786 555 786 l 215 786 q 190 780 200 786 q 139 738 170 769 q 95 682 108 707 q 90 654 90 670 l 90 177 q 95 152 90 163 q 139 95 108 127 q 190 52 170 63 q 215 47 200 47 l 540 47 q 565 52 555 47 q 616 95 584 63 q 661 152 648 127 q 666 177 666 163 l 668 654 m 558 491 q 541 425 558 452 q 475 362 531 411 q 419 338 456 348 l 508 177 l 459 177 l 372 338 l 268 338 l 268 177 l 219 177 l 219 663 l 401 663 q 475 640 444 663 q 541 570 525 598 q 558 506 558 544 l 558 491 m 512 491 l 512 506 q 506 537 512 526 q 433 609 487 575 q 401 616 420 616 l 268 616 l 268 384 l 401 384 q 433 393 419 384 q 506 461 488 423 q 512 491 512 472 "},"É":{"x_min":55.5625,"x_max":511.15625,"ha":682,"o":"m 511 0 l 55 0 l 55 825 l 511 825 l 511 775 l 104 775 l 104 436 l 511 436 l 511 387 l 104 387 l 104 50 l 511 50 l 511 0 m 398 1108 l 251 922 l 201 940 l 333 1108 l 398 1108 "},"~":{"x_min":69.453125,"x_max":422.25,"ha":642,"o":"m 422 794 l 377 780 q 301 823 354 833 l 200 790 q 122 800 159 776 q 69 872 86 823 l 113 886 q 190 843 137 833 l 291 876 q 368 866 331 890 q 422 794 405 843 "},"³":{"x_min":25,"x_max":336.140625,"ha":414,"o":"m 336 548 q 320 500 336 520 q 268 450 308 483 q 206 429 243 429 l 144 429 q 87 445 111 429 q 25 497 72 456 l 51 525 l 80 501 q 116 473 115 475 q 141 469 123 469 l 204 469 q 233 476 222 469 q 246 484 237 479 q 260 492 255 488 q 272 501 265 495 q 284 513 279 506 q 293 526 288 519 l 294 529 q 298 548 298 538 q 280 600 295 587 q 272 605 277 602 q 266 608 268 608 q 248 618 262 611 l 148 618 l 148 651 l 248 651 q 266 661 262 658 q 297 707 294 677 l 298 719 q 295 738 301 733 l 294 740 q 293 743 293 741 q 233 795 283 765 q 204 801 225 801 l 141 801 q 116 794 130 801 q 80 768 105 787 q 51 745 61 754 l 25 773 q 87 822 69 809 q 144 840 113 840 l 206 840 q 268 818 241 840 q 298 793 293 797 q 320 772 318 776 q 336 723 336 751 l 336 700 q 306 633 336 662 q 336 570 336 602 l 336 548 "},"¡":{"x_min":56.953125,"x_max":119.453125,"ha":290,"o":"m 119 751 l 56 751 l 56 819 l 119 819 l 119 751 m 109 0 l 65 0 l 65 569 l 109 569 l 109 0 "},"[":{"x_min":43.0625,"x_max":225.015625,"ha":399,"o":"m 225 0 l 43 0 l 43 825 l 225 825 l 225 783 l 91 783 l 91 41 l 225 41 l 225 0 "},"L":{"x_min":55.5625,"x_max":502.8125,"ha":618,"o":"m 502 0 l 55 0 l 55 825 l 104 825 l 104 50 l 502 50 l 502 0 "}," ":{"x_min":0,"x_max":0,"ha":375},"∑":{"x_min":0,"x_max":0,"ha":695},"%":{"x_min":56.953125,"x_max":786.171875,"ha":918,"o":"m 370 594 q 355 534 370 556 q 328 503 350 525 q 295 472 306 481 q 227 450 266 450 l 198 450 q 131 472 161 450 q 99 503 120 481 q 72 534 77 525 q 56 594 56 556 l 56 701 q 72 761 56 738 q 100 795 79 772 q 131 826 120 818 q 198 848 161 848 l 227 848 q 295 826 266 848 q 327 795 306 818 q 355 761 348 772 q 370 701 370 737 l 370 594 m 334 593 l 334 704 q 329 733 334 720 q 297 772 320 751 q 256 805 275 794 q 227 811 248 811 l 200 811 q 170 805 179 811 q 129 772 152 794 q 97 733 105 750 q 91 704 91 722 l 91 593 q 97 565 91 576 q 129 525 105 547 q 170 491 152 502 q 200 486 179 486 l 227 486 q 256 491 248 486 q 297 524 273 501 q 329 565 320 547 q 334 593 334 577 m 658 847 l 230 0 l 179 0 l 608 847 l 658 847 m 786 144 q 770 86 786 108 q 743 52 763 75 q 711 20 722 29 q 644 0 683 0 l 615 0 q 547 20 575 0 q 488 86 513 45 q 472 144 472 111 l 472 252 q 488 312 472 287 q 516 345 495 323 q 547 376 536 368 q 615 398 576 398 l 644 398 q 711 376 682 398 q 743 345 722 368 q 770 312 763 322 q 786 252 786 288 l 786 144 m 751 141 l 751 254 q 744 281 751 268 q 712 322 736 300 q 672 355 688 345 q 643 362 661 362 l 616 362 q 587 355 598 362 q 512 281 533 322 q 508 254 508 272 l 508 141 q 512 113 508 123 q 545 75 520 97 q 587 41 569 52 q 616 36 595 36 l 643 36 q 672 43 661 36 q 744 113 725 75 q 751 141 751 127 "},"P":{"x_min":55.5625,"x_max":581.984375,"ha":710,"o":"m 581 544 q 563 480 581 508 q 495 409 547 452 q 425 386 465 386 l 104 386 l 104 0 l 55 0 l 55 825 l 425 825 q 495 801 465 825 q 534 764 509 790 q 563 729 558 738 q 581 663 581 701 l 581 544 m 530 547 l 530 661 q 525 691 530 679 q 455 769 495 747 q 423 775 445 775 l 104 775 l 104 434 l 423 434 q 455 443 441 434 q 525 516 501 470 q 530 547 530 529 "},"∏":{"x_min":0,"x_max":0,"ha":695},"À":{"x_min":-6.9375,"x_max":627.828125,"ha":739,"o":"m 627 0 l 575 0 l 512 197 l 108 197 l 44 0 l -6 0 l 259 827 l 361 827 l 627 0 m 497 247 l 330 775 l 288 775 l 123 247 l 497 247 m 405 940 l 355 922 l 208 1108 l 273 1108 l 405 940 "},"_":{"x_min":34.71875,"x_max":509.765625,"ha":621,"o":"m 509 -73 l 34 -73 l 34 -31 l 509 -31 l 509 -73 "},"ñ":{"x_min":43.0625,"x_max":504.203125,"ha":657,"o":"m 504 0 l 456 0 l 456 441 q 452 472 456 462 q 420 516 443 493 q 380 550 398 538 q 348 556 368 556 l 236 556 q 209 551 220 556 q 150 510 184 537 q 98 455 115 483 l 98 0 l 51 0 l 51 508 l 43 598 l 90 598 l 101 513 q 170 577 138 558 q 231 604 208 604 l 350 604 q 427 579 395 604 q 487 512 461 552 q 504 444 504 488 l 504 0 m 454 794 l 409 780 q 333 823 386 833 l 232 790 q 154 800 191 776 q 101 872 118 823 l 145 886 q 222 843 169 833 l 323 876 q 400 866 363 890 q 454 794 437 843 "},"+":{"x_min":63.890625,"x_max":525.046875,"ha":720,"o":"m 525 322 l 316 322 l 316 101 l 272 101 l 272 322 l 63 322 l 63 369 l 272 369 l 272 590 l 316 590 l 316 369 l 525 369 l 525 322 "},"‚":{"x_min":88.890625,"x_max":141.671875,"ha":308,"o":"m 141 712 l 134 641 l 88 641 l 97 730 l 97 909 l 141 909 l 141 712 "},"½":{"x_min":77.78125,"x_max":814.0625,"ha":906,"o":"m 813 266 q 798 217 815 234 q 745 188 782 200 l 580 136 q 550 112 559 125 q 541 76 541 100 l 541 43 l 811 43 l 811 4 l 502 4 l 502 81 q 573 173 502 150 l 727 222 q 758 240 755 238 q 775 277 775 254 l 775 287 l 775 293 q 772 304 775 295 l 770 306 q 763 318 768 312 q 754 327 758 323 q 744 336 751 330 q 734 343 737 341 q 721 349 730 344 q 711 355 712 354 q 682 362 700 362 l 619 362 q 594 356 604 362 q 556 331 588 354 q 541 320 551 327 q 527 309 531 313 l 502 334 q 563 383 547 373 q 622 401 594 401 l 684 401 q 745 379 719 401 q 797 333 791 341 q 812 288 811 315 l 813 266 m 652 838 l 229 0 l 176 0 l 600 838 l 652 838 m 268 444 l 77 444 l 77 473 l 159 473 l 159 808 l 77 808 l 77 840 l 188 840 l 188 473 l 268 473 l 268 444 "},"Æ":{"x_min":-6.9375,"x_max":654.21875,"ha":825,"o":"m 654 1 l 380 1 l 380 0 l 347 0 l 334 1 l 334 195 l 108 195 l 45 0 l -6 0 l 259 826 l 358 826 l 654 825 l 654 775 l 384 775 l 384 436 l 654 436 l 654 387 l 384 387 l 384 51 l 654 51 l 654 1 m 334 773 l 290 773 l 123 247 l 333 247 l 334 773 "},"Ë":{"x_min":55.5625,"x_max":511.15625,"ha":682,"o":"m 511 0 l 55 0 l 55 825 l 511 825 l 511 775 l 104 775 l 104 436 l 511 436 l 511 387 l 104 387 l 104 50 l 511 50 l 511 0 m 429 955 l 359 955 l 359 1030 l 429 1030 l 429 955 m 237 955 l 167 955 l 167 1030 l 237 1030 l 237 955 "},"'":{"x_min":88.890625,"x_max":141.671875,"ha":308,"o":"m 141 712 l 134 641 l 88 641 l 97 730 l 97 909 l 141 909 l 141 712 "},"ª":{"x_min":55.5625,"x_max":347.25,"ha":517,"o":"m 347 448 l 315 448 l 301 508 q 263 465 279 477 q 252 455 259 462 q 230 447 243 447 l 162 447 q 118 463 140 447 q 69 519 88 487 q 55 579 55 543 l 55 705 q 69 765 55 741 q 118 819 87 794 q 184 840 145 840 l 336 840 l 336 522 l 347 448 m 302 547 l 302 805 l 183 805 q 155 800 163 805 q 94 730 122 779 q 88 702 88 719 l 88 581 q 94 554 88 565 q 155 484 122 505 q 183 479 163 479 l 209 479 q 233 483 222 479 q 302 547 255 494 "},"Œ":{"x_min":55.5625,"x_max":698.671875,"ha":842,"o":"m 698 0 l 223 0 q 206 4 218 1 q 188 8 194 6 q 159 20 169 12 q 111 64 143 31 q 69 113 79 97 q 55 175 55 137 l 55 658 q 69 709 55 688 q 111 761 80 727 q 159 804 143 794 q 188 816 169 812 q 206 820 194 818 q 223 825 218 823 l 698 825 l 698 775 l 443 775 l 443 436 l 698 436 l 698 387 l 443 387 l 443 50 l 698 50 l 698 0 m 381 50 l 381 773 l 227 773 q 204 768 215 773 q 111 683 136 729 q 104 655 104 672 l 104 176 q 111 151 104 169 q 154 96 125 126 q 204 55 184 66 q 227 50 215 50 l 381 50 "},"˛":{"x_min":188.90625,"x_max":302.796875,"ha":564,"o":"m 302 -244 l 248 -244 l 188 -87 l 236 -68 l 302 -244 "},"ð":{"x_min":0,"x_max":0,"ha":645},"T":{"x_min":-13.890625,"x_max":519.484375,"ha":631,"o":"m 519 777 l 276 777 l 276 0 l 227 0 l 227 777 l -13 777 l -13 825 l 519 825 l 519 777 "},"j":{"x_min":-111.125,"x_max":125.015625,"ha":278,"o":"m 125 770 l 61 770 l 61 840 l 125 840 l 125 770 m 116 -83 q 98 -151 116 -125 q 38 -216 75 -188 q -37 -238 11 -238 l -111 -238 l -111 -193 l -38 -193 q -6 -187 -15 -193 q 62 -111 34 -163 q 68 -80 68 -100 l 68 590 l 115 590 l 116 -83 "},"1":{"x_min":88.890625,"x_max":523.65625,"ha":686,"o":"m 523 0 l 88 0 l 88 50 l 288 50 l 288 775 l 144 775 l 144 826 l 338 826 l 338 50 l 523 50 l 523 0 "},"›":{"x_min":111.125,"x_max":340.3125,"ha":556,"o":"m 340 347 l 163 144 l 112 161 l 268 336 l 268 380 l 111 554 l 163 572 l 340 368 l 340 347 "},"ı":{"x_min":47.21875,"x_max":94.453125,"ha":249,"o":"m 94 0 l 47 0 l 47 597 l 94 597 l 94 0 "},"ä":{"x_min":20.828125,"x_max":498.65625,"ha":639,"o":"m 498 -1 l 451 -1 l 440 79 q 410 48 423 61 q 384 27 397 36 q 369 18 372 19 q 309 -8 336 -8 l 173 -8 q 97 16 129 -8 q 38 81 63 41 q 20 150 20 108 l 20 179 q 38 248 20 222 q 97 312 62 286 q 173 337 129 337 l 443 337 l 443 441 q 438 470 443 461 q 406 514 429 491 q 366 548 384 537 q 334 555 354 555 l 190 555 q 159 548 172 555 q 104 490 141 538 q 95 479 98 481 l 50 495 q 54 503 51 498 q 59 511 58 508 q 116 579 93 562 q 194 602 147 602 l 336 602 q 413 577 381 602 q 473 512 450 550 q 490 443 490 488 l 490 87 l 498 -1 m 444 141 l 444 291 l 175 291 q 143 283 158 291 q 73 208 97 255 q 68 177 68 197 l 68 151 q 73 122 68 133 q 143 45 98 73 q 175 38 155 38 l 305 38 q 331 44 320 38 q 444 141 416 88 m 393 770 l 323 770 l 323 845 l 393 845 l 393 770 m 201 770 l 131 770 l 131 845 l 201 845 l 201 770 "},"<":{"x_min":5.5625,"x_max":829.234375,"ha":996,"o":"m 829 394 l 120 394 l 120 359 l 470 0 l 409 0 l 5 418 l 409 837 l 470 837 l 120 477 l 120 443 l 829 443 l 829 394 "},"£":{"x_min":45.84375,"x_max":634.765625,"ha":803,"o":"m 634 145 q 613 108 620 118 q 530 22 576 54 q 468 1 497 1 l 102 1 l 102 236 l 45 236 l 45 277 l 102 277 l 102 393 l 45 393 l 45 436 l 102 436 l 102 658 q 116 718 102 694 q 159 770 127 736 q 206 813 190 804 q 269 834 240 834 l 429 834 l 429 784 l 276 784 q 251 777 265 784 q 201 736 230 766 q 158 682 172 707 q 154 648 154 669 l 154 619 l 154 436 l 483 436 l 483 393 l 154 393 l 154 277 l 483 277 l 483 236 l 154 236 l 154 51 l 463 51 q 490 58 476 51 q 580 152 548 93 l 581 155 q 584 161 583 158 l 634 145 "},"¹":{"x_min":27.78125,"x_max":218.078125,"ha":414,"o":"m 218 429 l 27 429 l 27 461 l 109 461 l 109 807 l 27 807 l 27 840 l 138 840 l 138 461 l 218 461 l 218 429 "},"t":{"x_min":-6.9375,"x_max":322.25,"ha":433,"o":"m 322 545 l 138 545 l 138 161 q 144 126 138 138 q 212 54 169 77 q 247 45 227 45 l 320 45 l 320 0 l 245 0 q 169 25 201 0 q 109 90 133 52 q 91 158 91 116 l 91 545 l -6 545 l -6 591 l 91 591 l 91 840 l 138 840 l 138 591 l 322 591 l 322 545 "},"¬":{"x_min":0,"x_max":0,"ha":833},"ù":{"x_min":41.671875,"x_max":502.8125,"ha":649,"o":"m 502 -1 l 455 -1 l 444 75 q 416 45 427 56 q 390 25 404 34 q 375 16 376 16 q 313 -6 341 -6 l 195 -6 q 118 18 150 -6 q 58 84 84 44 q 41 152 41 108 l 41 597 l 88 597 l 88 155 q 93 125 88 134 q 125 81 102 104 q 165 47 147 58 q 197 40 177 40 l 309 40 q 336 45 325 40 q 395 86 361 59 q 447 141 430 113 l 447 597 l 494 597 l 494 88 l 502 -1 m 333 741 l 283 723 l 136 909 l 201 909 l 333 741 "},"W":{"x_min":45.84375,"x_max":943.125,"ha":1035,"o":"m 943 826 l 762 0 l 673 0 l 497 787 l 488 787 l 312 0 l 222 0 l 45 826 l 94 826 l 252 51 l 283 51 l 454 826 l 531 826 l 702 51 l 733 51 l 891 826 l 943 826 "},"ï":{"x_min":-50.046875,"x_max":211.09375,"ha":286,"o":"m 94 0 l 47 0 l 47 597 l 94 597 l 94 0 m 211 770 l 141 770 l 141 845 l 211 845 l 211 770 m 19 770 l -50 770 l -50 845 l 19 845 l 19 770 "},">":{"x_min":13.890625,"x_max":837.5625,"ha":996,"o":"m 837 418 l 433 0 l 372 0 l 722 359 l 722 394 l 13 394 l 13 443 l 722 443 l 722 477 l 372 837 l 433 837 l 837 418 "},"v":{"x_min":-1.390625,"x_max":455.59375,"ha":565,"o":"m 455 597 l 270 0 l 186 0 l -1 597 l 50 597 l 213 51 l 241 51 l 405 597 l 455 597 "},"û":{"x_min":41.671875,"x_max":502.8125,"ha":649,"o":"m 502 -1 l 455 -1 l 444 75 q 416 45 427 56 q 390 25 404 34 q 375 16 376 16 q 313 -6 341 -6 l 195 -6 q 118 18 150 -6 q 58 84 84 44 q 41 152 41 108 l 41 597 l 88 597 l 88 155 q 93 125 88 134 q 125 81 102 104 q 165 47 147 58 q 197 40 177 40 l 309 40 q 336 45 325 40 q 395 86 361 59 q 447 141 430 113 l 447 597 l 494 597 l 494 88 l 502 -1 m 456 743 l 394 744 l 309 854 l 255 854 l 170 744 l 106 744 l 238 909 l 324 909 l 456 743 "},"Ò":{"x_min":56.953125,"x_max":622.265625,"ha":775,"o":"m 622 168 q 607 106 622 130 q 565 56 595 88 q 518 13 534 23 q 455 -6 484 -6 l 222 -6 q 161 13 194 -6 q 112 57 144 25 q 70 106 80 90 q 56 168 56 130 l 56 651 q 70 712 56 688 q 113 763 81 730 q 161 807 144 797 q 222 827 194 827 l 455 827 q 518 807 484 827 q 564 763 533 797 q 607 712 595 730 q 622 651 622 686 l 622 168 m 572 169 l 572 648 q 566 676 572 666 q 523 731 552 701 q 475 772 494 761 q 450 777 463 777 l 229 777 q 205 772 216 777 q 156 731 186 761 q 112 676 126 701 q 105 648 105 665 l 105 169 q 112 144 105 161 q 156 89 126 119 q 205 48 186 59 q 229 43 216 43 l 450 43 q 475 48 463 43 q 523 89 494 59 q 566 144 552 119 q 572 169 572 155 m 429 942 l 379 924 l 232 1110 l 297 1110 l 429 942 "},"&":{"x_min":25,"x_max":573.65625,"ha":771,"o":"m 573 295 l 531 295 l 531 159 q 513 95 531 123 q 484 58 506 84 q 448 23 461 31 q 373 0 418 0 l 180 0 q 108 23 138 0 q 72 58 95 31 q 43 95 50 84 q 25 159 25 123 l 25 283 q 43 347 25 320 q 105 416 54 365 q 43 486 54 468 q 25 551 25 512 l 25 668 q 43 734 25 705 q 72 769 48 744 q 108 805 95 794 q 180 830 140 830 l 281 830 q 344 809 311 830 q 425 722 379 787 q 448 686 443 695 l 398 672 q 395 676 395 675 l 394 679 l 394 680 q 353 734 380 707 q 305 775 326 762 q 277 780 297 780 l 181 780 q 151 773 163 780 q 111 739 133 762 q 80 695 90 716 q 73 665 73 679 l 73 554 q 80 523 73 540 q 151 447 105 475 q 181 438 165 438 l 313 440 l 313 393 l 181 393 q 151 384 165 393 q 80 309 104 356 q 73 280 73 295 l 73 162 q 80 133 73 147 q 151 56 105 84 q 181 50 163 50 l 373 50 q 405 56 393 50 q 476 133 451 84 q 483 162 483 147 l 483 348 l 573 348 l 573 295 "},"˝":{"x_min":101.390625,"x_max":470.875,"ha":515,"o":"m 470 909 l 323 723 l 273 741 l 405 909 l 470 909 m 298 909 l 151 723 l 101 741 l 233 909 l 298 909 "},"Ð":{"x_min":0,"x_max":0,"ha":761},"I":{"x_min":55.5625,"x_max":105.5625,"ha":275,"o":"m 105 0 l 55 0 l 55 825 l 105 825 l 105 0 "},"G":{"x_min":55.5625,"x_max":634.765625,"ha":793,"o":"m 634 2 l 584 2 q 581 39 583 13 q 577 86 579 65 q 509 20 534 38 q 448 0 476 0 l 222 0 q 159 20 193 0 q 112 63 143 30 q 70 113 81 95 q 55 173 55 136 l 55 658 q 70 719 55 697 q 113 770 81 737 q 159 813 144 804 q 222 834 193 834 l 448 834 q 511 813 477 834 q 593 726 544 793 q 613 691 600 716 l 563 676 q 561 682 562 679 l 559 684 q 518 738 545 709 q 470 779 491 766 q 444 784 459 784 l 227 784 q 204 779 215 784 q 154 738 184 768 q 111 683 125 708 q 105 655 105 673 l 105 176 q 111 151 105 162 q 154 96 125 126 q 204 55 184 66 q 229 50 215 50 l 441 50 q 466 55 455 50 q 517 96 487 66 q 561 151 547 126 q 566 176 566 162 l 566 393 l 363 393 l 363 441 l 616 441 l 616 287 q 622 131 616 183 q 634 2 622 97 "},"`":{"x_min":136.125,"x_max":333.359375,"ha":501,"o":"m 333 741 l 283 723 l 136 909 l 201 909 l 333 741 "},"·":{"x_min":119.453125,"x_max":200.015625,"ha":397,"o":"m 200 294 l 119 294 l 119 402 l 200 402 l 200 294 "},"r":{"x_min":43.0625,"x_max":447.265625,"ha":544,"o":"m 447 497 l 401 479 q 396 485 398 481 q 393 491 394 488 q 337 550 355 540 q 305 556 325 556 l 237 556 q 209 551 220 556 q 98 458 123 502 l 97 0 l 50 0 l 50 508 l 43 598 l 90 598 l 100 515 q 133 545 118 533 l 147 558 q 161 570 152 563 q 172 577 170 577 q 233 604 209 604 l 302 604 q 379 579 347 604 q 437 512 409 555 q 442 504 438 509 q 447 497 445 500 "},"¿":{"x_min":47.21875,"x_max":537.546875,"ha":617,"o":"m 330 743 l 254 743 l 254 820 l 330 820 l 330 743 m 537 134 q 515 97 526 113 q 434 12 475 37 q 370 -8 401 -8 l 204 -8 q 129 16 161 -8 q 93 51 116 26 q 63 87 70 76 q 47 152 47 113 l 47 251 q 123 370 47 327 l 215 422 q 266 501 266 450 l 266 577 l 318 577 l 318 494 q 237 376 318 420 l 145 326 q 95 247 95 297 l 94 155 q 100 125 94 137 q 172 50 123 79 q 205 41 186 41 l 368 41 q 394 48 380 41 q 441 86 413 58 q 483 141 468 115 l 484 144 q 487 148 486 145 l 537 134 "},"ý":{"x_min":0,"x_max":0,"ha":582},"x":{"x_min":20.828125,"x_max":456.984375,"ha":579,"o":"m 456 0 l 400 0 l 238 268 l 77 0 l 20 0 l 211 306 l 29 595 l 86 595 l 238 340 l 387 595 l 445 595 l 266 306 l 456 0 "},"è":{"x_min":41.671875,"x_max":504.203125,"ha":643,"o":"m 504 286 l 88 286 l 88 155 q 94 125 88 136 q 126 81 104 104 q 166 47 148 58 q 197 40 179 40 l 355 40 q 387 47 375 40 q 451 118 411 61 l 497 100 q 492 92 495 97 q 487 84 488 87 q 429 18 459 41 q 352 -6 397 -6 l 197 -6 q 119 18 151 -6 q 59 84 86 44 q 41 152 41 111 l 41 444 q 59 512 41 486 q 119 579 86 552 q 197 604 151 604 l 350 604 q 427 579 395 604 q 487 512 461 552 q 504 444 504 488 l 504 286 m 456 331 l 456 441 q 452 472 456 462 q 420 516 443 493 q 380 550 398 538 q 348 556 368 556 l 197 556 q 166 550 179 556 q 126 516 148 538 q 94 472 104 493 q 88 441 88 461 l 88 331 l 456 331 m 333 741 l 283 723 l 136 909 l 201 909 l 333 741 "},"º":{"x_min":55.5625,"x_max":376.421875,"ha":543,"o":"m 376 590 q 361 527 376 552 q 334 494 355 518 q 300 461 312 470 q 230 438 270 438 l 200 438 q 131 461 161 438 q 97 494 119 470 q 70 527 76 518 q 55 590 55 552 l 55 702 q 70 765 55 740 q 99 800 77 776 q 131 834 120 825 q 200 857 161 857 l 230 857 q 300 834 270 857 q 332 800 311 825 q 361 765 354 776 q 376 702 376 740 l 376 590 m 336 588 l 336 705 q 331 734 336 725 q 300 775 323 752 q 259 808 277 797 q 230 815 248 815 l 201 815 q 172 808 183 815 q 131 775 154 797 q 100 734 108 752 q 94 705 94 723 l 94 588 q 100 559 94 570 q 131 518 108 541 q 172 484 155 495 q 201 479 180 479 l 230 479 q 259 484 251 479 q 300 518 277 495 q 331 559 323 541 q 336 588 336 569 "},"Ø":{"x_min":56.953125,"x_max":622.265625,"ha":775,"o":"m 622 168 q 605 108 622 133 q 563 57 594 90 q 518 15 533 25 q 455 -5 484 -5 l 222 -5 q 162 12 195 -5 l 133 -41 l 80 -41 l 125 44 q 70 108 83 87 q 56 168 56 131 l 56 651 q 70 711 56 687 q 113 763 81 729 q 159 807 144 797 q 222 826 191 826 l 455 826 q 515 811 477 826 l 538 854 l 590 854 l 551 777 q 605 711 593 734 q 622 651 622 682 l 622 168 m 570 170 l 570 648 q 565 676 570 665 q 526 727 558 690 l 188 63 l 194 58 l 198 54 l 197 52 q 229 44 208 44 l 450 44 q 475 50 463 44 q 523 90 494 61 q 565 144 552 119 q 570 170 570 155 m 488 757 l 479 768 q 450 777 469 777 l 229 777 q 204 770 218 777 q 155 730 184 759 q 113 676 126 701 q 105 648 105 662 l 105 170 q 113 144 105 161 q 150 95 120 129 l 488 757 m 198 54 l 198 55 l 200 55 l 201 55 q 209 48 202 55 l 201 52 l 198 54 "},"∞":{"x_min":0,"x_max":0,"ha":1111},"μ":{"x_min":0,"x_max":0,"ha":643},"÷":{"x_min":0,"x_max":0,"ha":600},"h":{"x_min":45.84375,"x_max":498.65625,"ha":651,"o":"m 498 0 l 451 0 l 451 433 q 445 465 451 454 q 375 541 418 518 q 343 548 362 548 l 234 548 q 206 543 218 548 q 98 450 126 500 l 95 444 q 97 445 97 444 l 93 436 l 93 0 l 45 0 l 45 837 l 93 837 l 93 498 q 120 527 106 515 q 140 545 133 540 q 157 558 148 551 q 169 568 166 565 q 230 594 206 594 l 344 594 q 420 570 390 594 q 480 504 454 544 q 498 436 498 477 l 498 0 "},".":{"x_min":119.453125,"x_max":204.1875,"ha":397,"o":"m 204 0 l 119 0 l 119 90 l 204 90 l 204 0 "},";":{"x_min":44.453125,"x_max":183.34375,"ha":403,"o":"m 183 415 l 98 415 l 98 505 l 183 505 l 183 415 m 175 72 l 100 -120 l 44 -120 l 127 90 l 175 72 "},"f":{"x_min":16.671875,"x_max":344.46875,"ha":435,"o":"m 344 543 l 162 543 l 162 0 l 115 0 l 115 543 l 16 543 l 16 588 l 115 588 l 115 683 q 131 751 115 727 q 191 816 155 788 q 269 840 222 840 l 344 840 l 344 794 l 270 794 q 234 787 244 794 q 166 713 191 761 q 162 680 162 704 l 162 588 l 344 588 l 344 543 "},"“":{"x_min":79.171875,"x_max":331.96875,"ha":508,"o":"m 331 901 l 323 812 l 323 633 l 279 633 l 279 830 l 286 901 l 331 901 m 131 901 l 123 812 l 123 633 l 79 633 l 79 830 l 86 901 l 131 901 "},"A":{"x_min":-6.9375,"x_max":627.828125,"ha":739,"o":"m 627 0 l 575 0 l 512 197 l 108 197 l 44 0 l -6 0 l 259 827 l 361 827 l 627 0 m 497 247 l 330 775 l 288 775 l 123 247 l 497 247 "},"6":{"x_min":43.0625,"x_max":538.9375,"ha":686,"o":"m 538 152 q 520 87 538 115 q 491 50 513 76 q 455 15 468 23 q 383 -8 425 -8 l 198 -8 q 126 15 156 -8 q 90 50 113 23 q 61 87 68 76 q 43 152 43 115 l 43 670 q 61 736 43 708 q 90 773 68 747 q 126 808 113 800 q 198 832 156 832 l 368 832 q 430 812 401 832 q 511 725 461 793 q 533 688 525 705 l 484 675 l 479 683 q 438 737 465 709 q 390 777 411 765 q 362 783 381 783 l 198 782 q 168 776 177 782 q 97 698 126 752 q 91 668 91 686 l 91 402 q 138 455 136 452 q 163 477 156 473 q 226 494 188 494 l 383 494 q 455 472 429 494 q 492 436 469 461 q 520 402 515 412 q 538 337 538 373 l 538 152 m 488 154 l 488 336 q 483 365 488 354 q 413 441 455 418 q 381 450 400 450 l 230 450 q 204 443 218 450 q 101 351 126 397 q 91 331 95 341 l 91 154 q 97 125 91 136 q 129 82 106 105 q 169 48 151 59 q 200 41 181 41 l 381 41 q 413 48 401 41 q 483 125 458 75 q 488 154 488 136 "},"‘":{"x_min":79.171875,"x_max":131.953125,"ha":308,"o":"m 131 911 l 123 822 l 123 643 l 79 643 l 79 840 l 86 911 l 131 911 "},"π":{"x_min":43.0625,"x_max":716.71875,"ha":863,"o":"m 716 175 q 700 113 716 138 q 658 64 688 97 q 611 20 627 31 q 547 0 577 0 l 208 0 q 145 20 179 0 q 98 64 129 31 q 56 113 68 97 q 43 175 43 137 l 43 657 q 56 718 43 694 q 98 770 68 736 q 145 813 129 804 q 208 834 179 834 l 547 834 q 611 813 577 834 q 658 770 627 804 q 700 718 688 736 q 716 657 716 693 l 716 175 m 668 654 q 661 682 668 670 q 616 738 647 707 q 565 780 584 769 q 540 786 555 786 l 215 786 q 190 780 200 786 q 139 738 170 769 q 95 682 108 707 q 90 654 90 670 l 90 177 q 95 152 90 163 q 139 95 108 127 q 190 52 170 63 q 215 47 200 47 l 540 47 q 565 52 555 47 q 616 95 584 63 q 661 152 648 127 q 666 177 666 163 l 668 654 m 558 491 q 541 425 558 452 q 475 362 531 411 q 419 338 443 338 l 268 338 l 268 177 l 219 177 l 219 663 l 401 663 q 475 640 444 663 q 541 570 525 598 q 558 506 558 544 l 558 491 m 512 491 l 512 506 q 506 537 512 526 q 433 609 486 577 q 401 616 420 616 l 268 616 l 268 384 l 401 384 q 433 393 419 384 q 506 461 488 423 q 512 491 512 472 "},"O":{"x_min":56.953125,"x_max":622.265625,"ha":775,"o":"m 622 168 q 607 106 622 130 q 565 56 595 88 q 518 13 534 23 q 455 -6 484 -6 l 222 -6 q 161 13 194 -6 q 112 57 144 25 q 70 106 80 90 q 56 168 56 130 l 56 651 q 70 712 56 688 q 113 763 81 730 q 161 807 144 797 q 222 827 194 827 l 455 827 q 518 807 484 827 q 564 763 533 797 q 607 712 595 730 q 622 651 622 686 l 622 168 m 572 169 l 572 648 q 566 676 572 666 q 523 731 552 701 q 475 772 494 761 q 450 777 463 777 l 229 777 q 205 772 216 777 q 156 731 186 761 q 112 676 126 701 q 105 648 105 665 l 105 169 q 112 144 105 161 q 156 89 126 119 q 205 48 186 59 q 229 43 216 43 l 450 43 q 475 48 463 43 q 523 89 494 59 q 566 144 552 119 q 572 169 572 155 "},"n":{"x_min":43.0625,"x_max":504.203125,"ha":657,"o":"m 504 0 l 456 0 l 456 441 q 452 472 456 462 q 420 516 443 493 q 380 550 398 538 q 348 556 368 556 l 236 556 q 209 551 220 556 q 150 510 184 537 q 98 455 115 483 l 98 0 l 51 0 l 51 508 l 43 598 l 90 598 l 101 513 q 170 577 138 558 q 231 604 208 604 l 350 604 q 427 579 395 604 q 487 512 461 552 q 504 444 504 488 l 504 0 "},"3":{"x_min":48.609375,"x_max":538.9375,"ha":685,"o":"m 538 151 q 520 86 538 113 q 491 48 513 75 q 455 13 468 22 q 383 -9 425 -9 l 212 -9 q 151 11 184 -9 q 70 95 111 36 q 48 133 59 112 l 98 147 q 101 143 100 144 q 102 140 102 141 q 145 85 118 113 q 191 45 172 56 q 216 40 202 40 l 381 40 q 413 47 401 40 q 483 123 458 73 q 488 152 488 134 l 488 280 q 483 309 488 298 q 412 384 456 359 q 383 393 398 393 l 250 393 l 250 441 l 381 441 q 412 447 402 441 q 483 522 456 472 q 488 552 488 534 l 488 668 q 483 698 488 686 q 413 776 454 754 q 381 782 404 782 l 218 783 q 191 777 202 783 q 143 737 170 765 q 102 683 116 709 l 97 675 l 48 688 q 70 725 56 705 q 151 812 120 793 q 212 832 180 832 l 383 832 q 455 808 425 832 q 491 773 468 800 q 520 736 513 747 q 538 670 538 708 l 538 550 q 520 486 538 512 q 458 416 509 468 q 520 347 509 365 q 538 283 538 320 l 538 151 "},"9":{"x_min":43.0625,"x_max":540.328125,"ha":686,"o":"m 540 152 q 522 87 540 115 q 492 50 515 76 q 456 15 469 23 q 383 -8 426 -8 l 213 -8 q 152 11 181 -8 q 72 98 122 30 q 48 134 54 125 l 97 148 q 102 140 102 140 q 144 85 116 113 q 193 45 172 56 q 219 40 204 40 l 381 41 q 415 47 405 41 q 484 125 455 69 q 490 155 490 137 l 490 426 q 443 373 445 376 q 418 351 425 355 q 355 334 393 334 l 200 334 q 126 356 152 334 q 89 392 112 368 q 61 426 66 416 q 43 491 43 455 l 43 670 q 61 736 43 708 q 90 773 68 747 q 126 808 113 800 q 200 832 156 832 l 383 832 q 456 808 426 832 q 492 773 469 800 q 522 736 515 747 q 540 670 540 708 l 540 152 m 490 497 l 490 669 q 484 698 490 687 q 413 775 459 747 q 381 782 401 782 l 201 782 q 168 775 180 782 q 97 698 122 747 q 91 669 91 687 l 91 493 q 97 463 91 475 q 168 387 125 411 q 201 380 180 380 l 351 380 q 376 386 365 380 q 481 477 458 434 q 490 497 484 483 "},"l":{"x_min":47.21875,"x_max":100.015625,"ha":256,"o":"m 100 0 l 55 0 q 47 66 47 62 l 47 837 l 91 837 l 91 83 l 100 0 "},"¤":{"x_min":43.0625,"x_max":629.21875,"ha":795,"o":"m 629 134 q 607 98 620 118 q 525 12 565 37 q 463 -8 491 -8 l 268 -8 q 205 12 238 -8 q 158 54 188 22 q 116 105 127 87 q 101 165 101 131 l 101 311 l 43 311 l 43 352 l 101 352 l 101 468 l 43 468 l 43 511 l 101 511 l 101 651 q 116 711 101 684 q 159 762 127 729 q 205 805 190 795 q 266 826 238 826 l 463 826 q 525 805 491 826 q 607 719 565 780 q 629 683 620 700 l 579 668 q 576 673 577 670 l 575 676 q 534 729 561 701 q 486 770 506 758 q 459 776 475 776 l 273 776 q 248 770 259 776 q 200 729 229 759 q 156 675 170 700 q 152 643 152 662 l 152 612 l 152 511 l 476 511 l 476 468 l 152 468 l 152 352 l 476 352 l 476 311 l 152 311 l 152 168 q 156 143 152 151 q 200 88 170 118 q 248 47 229 58 q 273 41 259 41 l 459 41 q 484 47 473 41 q 531 86 504 58 q 575 141 559 115 l 576 144 q 579 148 577 145 l 629 134 "},"∂":{"x_min":0,"x_max":0,"ha":695},"4":{"x_min":41.671875,"x_max":568.09375,"ha":686,"o":"m 568 194 l 477 194 l 477 0 l 429 0 l 429 194 l 41 194 l 41 250 l 380 826 l 477 826 l 477 243 l 568 243 l 568 194 m 429 243 l 429 782 l 409 782 l 95 243 l 429 243 "},"p":{"x_min":43.0625,"x_max":511.15625,"ha":650,"o":"m 511 152 q 493 84 511 111 q 433 19 459 40 q 356 -4 402 -4 l 234 -4 q 173 22 211 -4 q 158 33 172 23 q 129 56 144 43 q 97 90 115 69 l 97 -247 l 50 -247 l 50 504 l 43 591 l 90 591 l 101 505 q 173 570 134 543 q 234 598 212 598 l 356 598 q 433 573 401 598 q 493 508 469 545 q 511 440 511 481 l 511 152 m 463 156 l 463 437 q 458 469 463 458 q 387 544 431 519 q 355 552 373 552 l 238 552 q 212 547 223 552 q 152 506 187 534 q 102 454 118 479 q 101 451 102 452 l 100 450 q 97 444 98 448 l 97 150 l 100 144 q 102 138 100 141 q 212 47 126 95 q 238 41 223 41 l 355 41 q 387 48 375 41 q 458 125 430 72 q 463 156 463 136 "},"‡":{"x_min":0,"x_max":0,"ha":542},"à":{"x_min":20.828125,"x_max":498.65625,"ha":639,"o":"m 498 -1 l 451 -1 l 440 79 q 410 48 423 61 q 384 27 397 36 q 369 18 372 19 q 309 -8 336 -8 l 173 -8 q 97 16 129 -8 q 38 81 63 41 q 20 150 20 108 l 20 179 q 38 248 20 222 q 97 312 62 286 q 173 337 129 337 l 443 337 l 443 441 q 438 470 443 461 q 406 514 429 491 q 366 548 384 537 q 334 555 354 555 l 190 555 q 159 548 172 555 q 104 490 141 538 q 95 479 98 481 l 50 495 q 54 503 51 498 q 59 511 58 508 q 116 579 93 562 q 194 602 147 602 l 336 602 q 413 577 381 602 q 473 512 450 550 q 490 443 490 488 l 490 87 l 498 -1 m 444 141 l 444 291 l 175 291 q 143 283 158 291 q 73 208 97 255 q 68 177 68 197 l 68 151 q 73 122 68 133 q 143 45 98 73 q 175 38 155 38 l 305 38 q 331 44 320 38 q 444 141 416 88 m 333 741 l 283 723 l 136 909 l 201 909 l 333 741 "},"Ü":{"x_min":44.453125,"x_max":575.046875,"ha":742,"o":"m 575 168 q 559 108 575 134 q 518 57 548 90 q 470 15 487 25 q 409 -5 437 -5 l 211 -5 q 148 15 181 -5 q 101 57 131 25 q 59 108 70 90 q 44 168 44 130 l 44 825 l 94 825 l 94 170 q 101 145 94 163 q 145 90 115 120 q 194 50 175 61 q 218 44 205 44 l 402 44 q 427 50 416 44 q 476 90 447 61 q 518 145 505 120 q 525 170 525 163 l 525 825 l 575 825 l 575 168 m 444 946 l 374 946 l 374 1021 l 444 1021 l 444 946 m 252 946 l 182 946 l 182 1021 l 252 1021 l 252 946 "},"ó":{"x_min":34.71875,"x_max":495.875,"ha":635,"o":"m 495 152 q 479 84 495 108 q 419 18 452 44 q 341 -6 387 -6 l 188 -6 q 111 18 143 -6 q 51 84 77 44 q 34 152 34 108 l 34 444 q 51 512 34 488 q 111 579 77 552 q 188 604 143 604 l 341 604 q 419 579 387 604 q 479 512 452 552 q 495 444 495 488 l 495 152 m 448 155 l 448 441 q 444 472 448 462 q 412 516 434 493 q 372 550 390 538 q 340 556 359 556 l 190 556 q 158 550 170 556 q 118 516 140 538 q 86 472 95 493 q 80 441 80 461 l 80 155 q 86 125 80 136 q 118 81 95 104 q 158 47 140 58 q 190 40 170 40 l 340 40 q 372 47 359 40 q 412 81 390 58 q 444 125 434 104 q 448 155 448 134 m 366 909 l 219 723 l 169 741 l 301 909 l 366 909 "},"√":{"x_min":0,"x_max":0,"ha":900}}}
